<svg id="Layer_1" viewBox="0 0 596.3 512.1" x="0" xml:space="preserve" xmlns="http://www.w3.org/2000/svg" y="0" class="css-1hf6p91"><style>.st0{fill:#223a5c}.st1{fill:#fff}.st2{opacity:.3;fill:#737e8c;enable-background:new}.st3{fill:#050a1e}.st10,.st9{fill:#fff;enable-background:new}.st9{opacity:.5}.st10{opacity:.4}</style><g id="Layer_1_00000160892110481448766380000007602773584480951743_"><path class="st0" d="M260.2 487.2c10.8 6.6 24.8 9.7 37.2 12.4l2.8.6c14.1 3.1 28.1 5.1 41.7 5.7h.4c7.2.4 14.7.7 22-.1 1.7-.2 3.4-.3 5-.4 4.9-.3 10-.7 14.3-3 6.3-2.5 12.2-8.7 14.9-15.3 4-9.7 1.9-21.6-5.1-29.6-17.9-20.4-54.9-13.3-65.8-10.7-7.4 1.8-14.2 4.1-20.2 6.9L305 455l1.4-2.4c1.7-3 2.4-6.6 1.8-9.8-.6-3.4-2.7-6.4-5.9-8.5-1.4-1-3.1-1.8-4.9-2.5-1.7-.6-1.8-1.2-1.6-2.7v-.1c0-.3.1-.6.1-1s.1-.7.1-1.1l.3-3.3.1-1c.5-5 1-9.9 1.6-14.6.3-2.6.7-5.2 1-7.8.4-2.8.8-5.8 1.1-8.7.4-3.4.9-6.9 1.4-10.3l.4-3c.1-.5.2-1.2.4-1.9.3-1.5.8-3.3.5-4.2-.1-.2-.5-1-3.4-2-3.7-1.3-7.9-.5-11.6.1-2.2.4-3.1.9-3.4 2.5-.3 1.6-.6 3.2-.8 4.8l-.1.9c-.2 1.2-.4 2.5-.6 3.7-.3 1.9-.6 3.8-1 5.7-.5 2.8-1 5.7-1.4 8.5-.5 3.1-1 6.3-1.5 9.4l-.2 1.1-2.1 11.4c-.6 3.1-1.1 6.4-1.6 10.3 0 .1-.1.4-.2.6-.4.9-1.6.9-2.6 1h-.5c-1.1.2-2 .4-2.8.6-1.9.5-3.6 1.3-5.1 2.4-4 2.8-6.7 6.9-7.3 11.3-.3 2.2 0 4.6 1 7 .2.5 2.7 3.9 3.7 5.2l1-.1-4.6 11.1c-1.1 2.7-2.3 5.5-2.7 8.3-.7 4.9 1.1 8.8 5.2 11.3z"></path><path class="st1" d="M260.2 487.2c10.8 6.6 24.8 9.7 37.2 12.4l2.8.6c14.1 3.1 28.1 5.1 41.7 5.7h.4c7.2.4 14.7.7 22-.1 1.7-.2 3.4-.3 5-.4 4.9-.3 10-.7 14.3-3 6.3-2.5 12.2-8.7 14.9-15.3 4-9.7 1.9-21.6-5.1-29.6-17.9-20.4-54.9-13.3-65.8-10.7-7.4 1.8-14.2 4.1-20.2 6.9L305 455l1.4-2.4c1.7-3 2.4-6.6 1.8-9.8-.9-4.7-4.8-8.7-9.2-10.3-6.2-2.2-4.1 5.1-4.5 8.9-.1.7-.2 1.4-.6 2-.4.6-1 .9-1.7 1.2-5.1 2.4-11.6 1.7-16.1-1.9-.7-.6-1.4-1.3-1.7-2.1-.2-.8 0-1.7.2-2.5l.9-3.9c.2-1 .5-2 .1-3-.6-1.7-2-1-3.2-1h-.5c-1.1.2-2 .4-2.8.6-1.9.5-3.6 1.3-5.1 2.4-4 2.8-6.7 6.9-7.3 11.3-.3 2.2 0 4.6 1 7 .2.5 2.7 3.9 3.7 5.2l1-.1-4.6 11.1c-1.1 2.7-2.3 5.5-2.7 8.3-.8 4.8 1.1 8.8 5.1 11.2z"></path><path class="st2" d="M272.3 464.7c2.2-1.1 5.1 0 6.4-2.1-1.9-1.4-4.3-1.8-6.6-2.4-6.4-1.7-10.2-8-7-14.1 1.1-2.2 3.3-3.9 5.7-4.1 1-.1 2 0 3.1.2s2.3.3 3.4.5c-1.7-1.1-3.6-3.6-3.6-5.7 0-1.8 2.3-3.4 1.9-5.2-.6-2.9-4.6-1.3-6.5-.8-1.9.5-3.6 1.3-5.1 2.4-4 2.8-6.7 6.9-7.3 11.3-.3 2.2 0 4.6 1 7 .2.5 2.7 3.9 3.7 5.2l1-.1-4.6 11.1c-1.1 2.7-2.3 5.5-2.7 8.3-.6 4.7 1.2 8.6 5.2 11.1 10.8 6.6 24.8 9.7 37.2 12.4l2.8.6c14.1 3.1 28.1 5.1 41.7 5.7h.4c7.2.4 14.7.7 22-.1 1.7-.2 3.4-.3 5-.4 4.9-.3 10-.7 14.3-3 9.8-5.1 16.7-15.4 15-27 .8 5.1-8.8 12.7-12.4 14.9-5.7 3.4-11.8 4.6-18.2 4.7-9.7.2-19 .8-28.7-.1s-19.4-2.5-29-4.1c-12.5-2.1-25.2-4.2-36.5-9.8-1.5-.7-3.1-1.6-3.9-3.1-.9-1.6-.8-3.6-.7-5.4.1-2.1.3-4.4 1.4-6.2.3-1 .9-1.5 1.6-1.7z"></path><path class="st3" d="M394.2 457c-15.5-17.6-46-16-66.6-11-6.9 1.7-13.8 3.9-20.4 6.9 1.8-3.1 2.5-6.9 1.9-10.4-.7-3.8-3.1-7-6.3-9.1-1.6-1.1-3.3-1.9-5.1-2.6-1.2-.5-1.1-.6-1-1.9.1-.7.2-1.4.2-2 .1-1.4.3-2.9.4-4.3.5-4.9 1-9.7 1.6-14.6.7-5.5 1.5-11 2.2-16.4.8-6.8 2-13.7 2.8-20.5-1-.1-2.1.1-3.2 0-.7 6.1-1.4 12.2-2 18.3-.6 5.9-1.7 11.8-2.4 17.8-.6 4.4-1.1 8.8-1.6 13.2-.8 7.5-1.6 14.9-2.2 22.4v.5c-1 .4-2.1.7-3.2.9-3.6.6-7.1.5-10.5-1.2-1.2-.6-2.3-1.3-3.3-2.2.1-.2.2-.4.2-.6 1.7-11.6 3.5-23.1 5.4-34.6 1.2-5.9 2-11.8 3-17.8.9-5.6 2.3-11.3 3.2-17 .1-.5-3-.5-3.2-.5-.2 0-2.8 15.8-3.1 17.4-1.1 6-1.8 12-2.9 17.9-.8 4.2-1.5 8.3-2.3 12.5-.6 3.5-1.1 6.9-1.6 10.4 0 .1 0 .2-.1.3-.3.5-1.9.5-2.5.6-1 .2-1.9.4-2.9.6-1.9.5-3.7 1.4-5.3 2.5-3.9 2.8-7 7-7.7 11.9-.4 2.5.1 5.1 1.1 7.5.3.6 4.1 5.8 4.1 5.8-1.4 3.3-2.7 6.5-4.1 9.8-1.1 2.8-2.3 5.6-2.7 8.6-.7 5.1 1.3 9.3 5.7 12 11.8 7.2 27 10.2 40.3 13.1 13.8 3 27.8 5 41.8 5.8 7.3.4 15 .8 22.5-.1 6.6-.8 13.7-.3 19.7-3.5 6.9-2.8 12.7-9.4 15.3-15.8 4.1-10.2 2-22.3-5.2-30.6zm-2.8 36c-7.8 8.7-19.4 9.9-30.3 10.1-6.1.1-12.3.1-18.4-.1-12.4-.5-24.7-1.8-36.9-4.1-11.8-2.2-23.3-5.6-34.6-9.5-2.9-1-5.8-2-8.5-3.4-2-1-4.2-2.4-5.2-4.5-1.3-2.8.6-7.6 1.5-10.3 1.2-3.7 2.7-7.7 4.6-11.1 1.8.6 3.5 1.8 5.5 2.3 2.1.5 4.3.5 6.4-.1.3-.1.3-.5 0-.6-8.6-1.3-16.9-5.9-16.4-15.8.2-3.9 2.3-7.6 5.2-10.1 2.8-2.4 5.7-3.1 9-3.4l-.9 5.4c-.3-.3-.7-.6-.9-.4-.8.5.3 2.5.6 3 2.3 3.5 6.3 5.7 10.3 6.4 6.5 1.1 12.5-.7 16.3-6.2.4-.6-.5-1.4-1-.8-.6.6-1.3 1.2-2 1.8.1-2.4.1-5 .5-7.3 1.4.3 2.6.5 3.9 1.3 1.3.8 2.5 1.8 3.5 3 2.8 3.6 3.1 8.4 1.4 12.5-.8 1.8-1.9 3.3-3.2 4.7-1.7.9-3.3 1.9-4.9 2.9-2.7 1.8-5.4 3.8-7.8 6-.2.2 0 .4.2.3 6.2-3.2 12.1-6.9 18.5-9.7 6.8-2.9 13.9-5.1 21.1-6.6 13.3-2.8 27.9-3.6 41.2-.7 13.4 2.9 26.1 10.8 27.5 25.6.8 7-1.5 14.1-6.2 19.4z"></path><path class="st0" d="M244.3 442.9c-2-4-5.9-7-10.4-8l-.8-.2.1-.8c1.1-8.9 2-17.1 2.8-25.1 1-10.1 2.1-23.5 2.9-37-.3 0-.5 0-.7-.1h-.4l-.2-.4c-1.2-1.7-4.1-1.6-6.7-1.4-.8.1-1.7.1-2.7 0-2.9 0-6.2-.1-7.7 2l-.3.4h-.5c-.1 0-.3 0-.3.1-1 3.7-1.3 7.8-1.6 11.7l-.3 3.9c-.5 6-1.2 12.1-1.8 18.2-.8 7.5-1.9 15.7-3.4 25.9l-.1.7h-.7c-5 .4-12.3 2.5-16.5 7.5-2.2 2.6-3.1 5.7-2.8 9 .4 3.6 1.9 6.5 4.5 8.7l4.5 3.8-5.4-2.2c-7.7-3.2-15.4-5.7-22.8-7.6-8.3-2-16.5-3.1-24.3-3.1-7.2 0-14.2.9-20.6 2.6-8.6 2.3-23.8 8.4-29.9 22.8-2.7 6.3-2.7 13.9-.1 19.8 2 4.5 5.4 7.6 9.8 9.2h.3l.1.1c2 1.1 4.2 1.9 6.1 2.6 5.3 2 11.1 3.4 16.9 4.1 12.1 1.5 25.3 1.6 39.1.4 13.5-1.2 26.3-3.7 37.8-7.4 6.4-2.1 12.2-4.4 17.7-7.1 4.6-2.3 9.9-4.8 12.8-9.2 1.2-2 1-5.3.9-7.7l-.2-3.1c-.3-4.5-.5-9.1-1.2-13.6-.1-.4-.1-.9 0-1.5.2-.7.9-1 1.5-1.3.1-.1.3-.1.4-.2.6-.4 1.2-1 1.7-1.5 1.1-1.2 2.1-2.5 2.8-4 1.5-3.7 1.5-7.6-.3-11z"></path><path class="st1" d="M244.3 442.9c-1.3-2.6-8-10.2-11.5-7.1-1.1 1-.8 2.7-.7 4.2.2 2-.2 4.2-1.7 5.6-.7.7-1.7 1.2-2.7 1.6-4.8 1.9-10.5 1.3-14.9-1.4-.4-.2-.8-.5-1.1-1-.3-.5-.2-1.1-.1-1.7.4-3 1.2-6.1.5-9.1-.1-.6-.3-1.2-.8-1.5-1-.6-6.8 1.7-8.1 2.1-3.2 1.2-6.3 3.1-8.5 5.7s-3.1 5.7-2.8 9c.4 3.6 1.9 6.5 4.5 8.7l4.5 3.8-5.4-2.2c-7.7-3.2-15.4-5.7-22.8-7.6-8.3-2-16.5-3.1-24.3-3.1-7.2 0-14.2.9-20.6 2.6-8.6 2.3-23.8 8.4-29.9 22.8-2.7 6.3-2.7 13.9-.1 19.8 2 4.5 5.4 7.6 9.8 9.2h.3l.1.1c2 1.1 4.2 1.9 6.1 2.6 5.3 2 11.1 3.4 16.9 4.1 12.1 1.5 25.3 1.6 39.1.4 13.5-1.2 26.3-3.7 37.8-7.4 6.4-2.1 12.2-4.4 17.7-7.1 4.6-2.3 9.9-4.8 12.8-9.2 1.2-2 1-5.3.9-7.7l-.2-3.1c-.3-4.5-.5-9.1-1.2-13.6-.1-.4-.1-.9 0-1.5.2-.7.9-1 1.5-1.3.1-.1.3-.1.4-.2.6-.4 1.2-1 1.7-1.5 1.1-1.2 2.1-2.5 2.8-4 1.8-3.7 1.8-7.6 0-11z"></path><path class="st2" d="M199.8 437.4c1.2-.7 2.6-1.1 4-1.1s2.8.7 3.6 1.8c.6.8 1 1.9 1.5 2.7.5.9 1.3 1.7 2.2 2.2 1-3.1 1.9-5.9 1.1-9.1-.1-.6-.3-1.2-.8-1.5-1-.6-6.8 1.7-8.1 2.1-1.4.6-2.2 2.1-3.5 2.9z"></path><path class="st2" d="M107.7 503.2h.3l.1.1c2 1.1 4.2 1.9 6.1 2.6 5.3 2 11.1 3.4 16.9 4.1 12.1 1.5 25.3 1.6 39.1.4 13.5-1.2 26.3-3.7 37.8-7.4 6.4-2.1 12.2-4.4 17.7-7.1 4.6-2.3 9.9-4.8 12.8-9.2 1.2-2 1-5.3.9-7.7l-.2-3.1c-.3-4.5-.5-9.1-1.2-13.6-.1-.4-.1-.9 0-1.5.2-.7.9-1 1.5-1.3.1-.1.3-.1.4-.2.6-.4 1.2-1 1.7-1.5 1.1-1.2 2.1-2.5 2.8-4 1.6-3.5 1.6-7.4-.1-10.8-1.3-2.6-8-10.2-11.5-7.1-1.4 1.2-.6 3.5-.6 5.1 0 1.9-.1 3.5.5 5.3 1.2-.8 2.3-2 3.7-2.4 4.2-1.1 7.4 1.4 7.3 5.6-.1 4.9-3.4 8.3-6.9 11.2-3.8 3.1-10.4 2.3-14.9 2.9.1 2.2 3.4 2.5 4.7 4.3.6.8.6 1.9.7 2.8.3 4.7.2 9.6-2.2 13.6-4.4 7.2-16.2 11.1-23.8 13.4-18.5 5.4-37.9 7.8-57.1 6.9-10-.5-20.2-1.8-29-6.5S99.1 484.8 98 474.9c.6 5.5-1.5 11.1-.8 16.6.7 5.3 5.7 10 10.5 11.7z"></path><path class="st3" d="M234.1 434c1-8.4 2-16.7 2.8-25.1 1.2-12.4 2.2-24.9 2.9-37.3 0-.2 0-.4-.1-.5-.1-.1-.2-.1-.4-.1-.8-.1-1.6-.2-2.4-.1-.3 0-1 16.8-1.1 17.9-.4 6.1-1 12.3-1.5 18.4a811.8 811.8 0 0 1-4.5 38.2c-2.6.7-5.2 1.1-8 1-3.5-.2-6.3-1.2-8.8-2.7 1.6-11.6 2.9-23.3 4.2-34.9.7-5.8 1.3-11.5 1.8-17.3.6-6.4 1.2-12.7 1.8-19 0-.2 0-.3-.1-.5-.4-.6-2-.6-2.3.2-1.4 5.1-1.5 10.6-2 15.8-.6 6.1-1.2 12.1-1.8 18.2-1 8.6-2.1 17.2-3.4 25.8-9.3.6-21.3 6.7-20.1 17.5.5 4.1 2.3 7.1 4.8 9.3-7.4-3.1-15.1-5.7-22.9-7.6-14.8-3.6-30.6-4.5-45.4-.5-12.7 3.4-25.2 10.7-30.5 23.3-4.5 10.7-2 25.9 10.2 30.2.1 0 .2 0 .3.1 2.1 1.1 4.3 2 6.2 2.7 5.5 2 11.3 3.4 17.1 4.1 13 1.6 26.2 1.5 39.3.4 12.9-1.1 25.7-3.5 38-7.5 6.1-2 12-4.3 17.8-7.1 4.7-2.3 10.2-5 13.1-9.5v-.1c1.5-2.4 1.1-6.2.9-8.8-.3-5.4-.6-10.8-1.4-16.2 0-.3-.1-.7 0-1 .2-.5 1.1-.8 1.5-1.1.7-.5 1.3-1.1 1.9-1.6 1.2-1.2 2.2-2.7 3-4.3 4.5-9.2-2.1-18.4-10.9-20.3zm7.5 20.8c-4.8 6.9-13.4 7.7-21 8.3-.1 0-.1.1 0 .2 5 1 10.8.9 15.6-1-.5 4.1.4 8.5.6 12.5.1 2.3.4 4.7.3 7 0 1.3-.5 2.5-.8 3.7-8.8 8.2-20.3 12.8-31.7 16.2-11.6 3.5-23.7 5.5-35.8 6.3-11.6.8-23.3.7-34.8-.4-5.5-.5-11.2-1.1-16.6-2.7-3.8-1.2-7.4-3.4-11.1-5-9.7-8.7-9.7-22.5-.8-32.5 8.3-9.4 21.5-14.1 33.7-15.6 12.7-1.6 25.7.2 38 3.5 6.2 1.7 12.4 3.8 18.4 6.3 5.7 2.4 12.3 4.8 17.2 8.5.1.1.3-.1.1-.2-3.4-3.2-6.6-5.8-10.3-8 3.3.9 7 1 10.5.5.5-.1.4-.9-.1-.8-8.2.6-18-3.3-19-12.6-1-9.4 9.4-13.2 17-14.7-.4 2.4-.7 4.7-1.1 7.1l-1.5-1.2c-.3-.2-.8 0-.6.3.5 1.3 1.2 2.4 2.2 3.5.1.2.3.4.5.5 2.4 2.3 5.9 3.8 9.2 4.4 2 .3 4 .3 6 .1 3.8-.4 8.1-1.2 10.4-4.7.1-.2 0-.5-.3-.5-1.2 0-2 .2-3 .5.4-.1.4-2.6.5-2.9.1-1.5.2-3.1.4-4.6 8 1 12.5 11.4 7.9 18z"></path><path d="m513.9 263-.1 1v-.6h.8c-.1-.2-.4-.4-.7-.4z" style="fill: rgb(96, 96, 96);"></path><path class="st0" d="M547.7 240.3c2.5-5 5.1-10.3 7.9-16.9.1-.2.3-.6.6-1 .6-.7 1.4-.8 1.9-.9 5.4-1 11.1-2.1 16.1-3.8 5.5-1.8 10-4.5 13.5-7.9 5.2-5.2 8.9-14.1 5.3-22.1-.3-.6-.6-1.2-1-1.8-2.4-3.8-6.7-6.1-11.7-6.3-4.9-.2-10.3 2.6-15.3 5.6-2.1 1.2-4.1 2.6-6.1 3.9l-.1.1c-1.3.9-2.6 1.7-4 2.6-2.5 1.6-5 3-7.5 4.4l-.1.1-2.7 1.5-.3.2c-.2.1-.7.4-1.5.4-.7-.1-1.1-.4-1.3-.5-.3-.2-.5-.4-.8-.6-.4-.3-.8-.6-1.1-.9l-1.7-1.2 1.5-1.5c4-4 7.9-8.2 11.6-12.3 2-2.1 3.9-4.2 5.9-6.3.6-.7 1.3-1.3 1.9-2 4-4.2 8.1-8.5 10.4-13.6 2.4-5.3 4.7-12.1 1.2-18.1-1.6-2.8-4.2-4.6-7.3-5.4-4.2-.9-9.3.3-13.3 3.1-2.3 1.6-4.3 3.8-6 5.6-4.8 5.3-9.3 11-13.3 17l-.7 1.1-3-1.8.6-1.1c2.3-4.1 4.3-7.8 5.8-11.9 2.3-6.4 4.6-14.6 1.5-21.6-2.9-6.4-10.1-7.5-15.8-5.3-1.5.6-3.1 1.5-4.5 2.5-8.2 5.4-11.7 15.9-14.2 26.3-3.9 15.9-9.5 28.8-17.2 39.6l-2.3 3.3-.9-4.2c0-.2-.1-.3-.1-.5-.8-3.1-3-6.5-4.6-8.8-1.9-2.6-4.3-4.9-7-6.6-5.7-3.6-12.2-4.5-17.9-2.5-4.8 1.7-8.6 5.5-10.1 10.1-2.8 8.7 2.6 17 8.5 21.8 1.2.9 2.4 1.9 3.6 2.8 2.7 2 5.5 4.1 7.9 6.7 4.6 4.9 5.5 10.8 6.4 16.9l.2 1.6c.4 2.7 1.2 5.4 2.4 7.9l.6 1.3-1.2.9c-4.9 3.5-4.7 12.4-2.7 17.4.7 1.6 1.6 3.2 2.7 4.8l.3.5c1 1.3 2 2.8 3.1 3.8l1.3 1.2-1.1 1.1c-.8.9-1.9 1.2-2.7 1.5-3.3 1-6.5 1.5-10.2 1.5-7.2-.1-14.1-2-19.9-5.6-9.8-6-17.3-17-21.2-30.8-6.9-24.3-5.6-50.3-4.3-75.4l.1-2.2h-.8l-.5-.3c-1.6-1.1-5.2-.6-7.5-.2-.8.1-1.5.2-2 .2-.5.1-1.2.1-1.8.1-2.1.1-4.8.2-6.2 1.3l-1.5 1.2c-.2 1.7-.2 3.6-.2 5.4v1.8c-.1 3.5-.1 7.2-.1 11.3 0 9 .2 16.4.7 23.4 1.1 15.5 3.5 28.8 7.3 40.6 4.7 14.8 11.3 26.7 19.4 35.4 7.3 7.8 18.8 13.1 31.5 14.6 4.8.6 9.7.5 14.7-.3 6.9-1 13.2-3.3 18.8-6.6 5.2-3.1 8.6-6.2 10.8-10 .1-.2.4-.6.8-.9.6-.5 1.3-.5 1.6-.5 3.2-.2 6.4-1.5 9.3-3.8 1.3-1 2.2-2 2.9-3.2.2-.4 1.1-2.9 1.2-3.4v.2h.3l.2-2.2 1.4.1c7.2.6 15.8-1.7 21.3-5.8 5.9-4.6 9.7-11 12.3-16.1z"></path><path class="st1" d="M547.7 240.3c2.5-5 5.1-10.3 7.9-16.9.1-.2.3-.6.6-1 .6-.7 1.4-.8 1.9-.9 5.4-1 11.1-2.1 16.1-3.8 5.5-1.8 10-4.5 13.5-7.9 5.2-5.2 8.9-14.1 5.3-22.1-.3-.6-.6-1.2-1-1.8-2.4-3.8-6.7-6.1-11.7-6.3-4.9-.2-10.3 2.6-15.3 5.6-2.1 1.2-4.1 2.6-6.1 3.9l-.1.1c-1.3.9-2.6 1.7-4 2.6-2.5 1.6-5 3-7.5 4.4l-.1.1-2.7 1.5-.3.2c-.2.1-.7.4-1.5.4-.7-.1-1.1-.4-1.3-.5-.3-.2-.5-.4-.8-.6-.4-.3-.8-.6-1.1-.9l-1.7-1.2 1.5-1.5c4-4 7.9-8.2 11.6-12.3 2-2.1 3.9-4.2 5.9-6.3.6-.7 1.3-1.3 1.9-2 4-4.2 8.1-8.5 10.4-13.6 2.4-5.3 4.7-12.1 1.2-18.1-1.6-2.8-4.2-4.6-7.3-5.4-4.2-.9-9.3.3-13.3 3.1-2.3 1.6-4.3 3.8-6 5.6-4.8 5.3-9.3 11-13.3 17l-.7 1.1-3-1.8.6-1.1c2.3-4.1 4.3-7.8 5.8-11.9 2.3-6.4 4.6-14.6 1.5-21.6-2.9-6.4-10.1-7.5-15.8-5.3-1.5.6-3.1 1.5-4.5 2.5-8.2 5.4-11.7 15.9-14.2 26.3-3.9 15.9-9.5 28.8-17.2 39.6l-2.3 3.3-.9-4.2c0-.2-.1-.3-.1-.5-.8-3.1-3-6.5-4.6-8.8-1.9-2.6-4.3-4.9-7-6.6-5.7-3.6-12.2-4.5-17.9-2.5-4.8 1.7-8.6 5.5-10.1 10.1-2.8 8.7 2.6 17 8.5 21.8 1.2.9 2.4 1.9 3.6 2.8 2.7 2 5.5 4.1 7.9 6.7 4.6 4.9 5.5 10.8 6.4 16.9l.2 1.6c.4 2.7 1.2 5.4 2.4 7.9l.6 1.3-1.2.9c-4.9 3.5-4.7 12.4-2.7 17.4.7 1.6 1.6 3.2 2.7 4.8l.3.5c3.6 4.9 7.5 9.4 13.5 11.2 4.8 1.4 9.4 1.3 14.3.7 4.3-.5 7.9-1.2 11.4-4 1.3-1 2.2-2 2.9-3.2.2-.4 1.1-2.9 1.2-3.4v.2h.3l.2-2.2 1.4.1c7.2.6 15.8-1.7 21.3-5.8 6.1-4.6 9.9-11.1 12.5-16.2z"></path><path class="st2" d="M572 145.4c0 2.1-.7 4.2-1.7 6.1-2.6 5.3-6.7 9.8-10.6 14.2-5.5 6.1-11.1 12.2-16.7 18.4-2.8 3.1-5.9 6.3-10 6.9 1.2.2 2 1.2 2.8 2 2.8 2.4 5.4-2.1 7.2-3.9 2.6-2.6 5.3-5.2 7.8-7.9 2-2.1 3.9-4.2 5.9-6.3.6-.7 1.3-1.3 1.9-2 4-4.2 8.1-8.5 10.4-13.6 2.2-4.7 3-8.9 3-13.9zm-39.8-11.2c-.9 3.8-2.3 7.6-3.9 11.2-4.2 9.8-9.2 19.2-13.7 28.9-.1.1-.1.3-.3.3-.2.1-.3-.1-.5-.2-.8-.7-2.2-.2-2.5.8-.2.6 6.1 2.4 7.1 1.8 1.9-1.2 2.2-4.7 3.2-6.5 1.9-3.1 3.8-6.2 5.7-9.2l-.8-.5.6-1.1c2.3-4.1 4.3-7.8 5.8-11.9.9-2.4 1.7-4.9 2.3-7.5.4-1.9 1.2-3.7 1.5-5.6.4-2.1-.3-4.7-1-6.7-.4-1.1-.9-2.1-1.5-3.1-.4-.6-1.6-1.6-1.7-2.2.8 3.9.6 7.7-.3 11.5zM460 211.4c2.8 3 4.2 6.3 5.1 9.7.8-2.9 1.2-5.9 1-9-.5-5.3-2.7-10.4-7.7-12.9-3.3-1.6-7-2.4-10.1-4.4-5.1-3.2-7.9-9.4-8.2-15.4-3.1 8.5 1.8 17.2 8.3 22.5 1.2.9 2.4 1.9 3.6 2.8 2.7 2 5.6 4.1 8 6.7zm109.7 1.1c-.5.2-1 .3-1.6.4-4 1-8.2 1.4-12.3 1.6-.8 0-1.7.1-2.4.6-.5.4-.9 1-1.2 1.6-3.8 7.6-7.2 15.5-12.2 22.5-4 5.6-9 12-15.4 15-7.3 3.3-16.3 4.2-24.2 3.8 2 1.5 3.8 3.3 5.3 5.4.3.4.6.9.7 1.5 0 .8-.6 1.5-1.2 2-3.8 3-8.9 3.6-13.7 3.5-6.4-.1-13.3-1.6-17.7-6.2-4.2-4.4-5.4-11.4-3-16.9.4-.9 5.2 1.9 5.6 2.1 2.1 1.2 4.4 2.2 6.8 2-4.8-3.6-9.3-6.7-12.8-11.8-.3-.4-.6-.9-1.1-1-.7-.2-1.5.2-2 .8-1.8 1.6-2.4 3.1-2.8 5.4-.8 4.1-.5 8.9 1.2 12.8.7 1.6 1.6 3.2 2.7 4.8l.3.5c3.6 4.9 7.5 9.4 13.5 11.2 4.8 1.4 9.4 1.3 14.3.7 4.3-.5 7.9-1.2 11.4-4 1.3-1 2.2-2 2.9-3.2.2-.4 1.1-2.9 1.2-3.4v.2h.3l.2-2.2 1.4.1c7.2.6 15.8-1.7 21.3-5.8 6-4.5 9.8-10.9 12.4-16 2.5-5 5.1-10.3 7.9-16.9.1-.2.3-.6.6-1 .6-.7 1.4-.8 1.9-.9 5.4-1 11.1-2.1 16.1-3.8 5.5-1.8 10-4.5 13.5-7.9 2.4-2.4 4.3-5.3 5.5-8.4 1.4-3.7 1.3-6-.1-9.5-5 9.5-12.7 17.2-23.3 20.4z"></path><path class="st3" d="M594.6 186.9c-.3-.7-.7-1.4-1.1-2.1-2.9-4.5-7.9-6.9-13.2-7.1-5.7-.2-11.5 3-16.3 5.8-3.5 2.1-6.8 4.4-10.3 6.6-3.3 2.1-6.8 3.9-10.2 5.9-.1.1-.2.1-.3.2-.1.1-.3.1-.4.1-.1 0-.3-.1-.4-.2-.7-.5-1.3-1-2-1.5 6-6.1 11.7-12.4 17.5-18.6 4.6-4.9 9.8-9.8 12.6-16 2.8-6.2 4.8-13.4 1.1-19.8-4.9-8.5-16-8-23.2-2.8-2.3 1.7-4.4 3.8-6.3 5.9-4.9 5.4-9.4 11.1-13.5 17.2 2.2-4 4.3-7.9 5.9-12.1 2.6-7.1 4.7-15.6 1.4-22.9-3.2-7-11.2-8.9-18-6.2-1.8.7-3.4 1.6-4.9 2.7-9 5.9-12.4 17.2-14.9 27.4-3.4 14-8.5 27.2-16.9 38.9-.1-.3-.1-.5-.2-.8-.8-3.2-2.9-6.7-4.9-9.4-2-2.8-4.6-5.2-7.5-7-5.8-3.6-12.9-4.9-19.4-2.6-5.2 1.8-9.5 6-11.2 11.2-3 9.2 2.1 18.1 9.1 23.7 3.8 3.1 8 5.7 11.4 9.3 4.7 5 5.2 11.2 6.1 17.6.4 2.9 1.3 5.7 2.5 8.4-5.7 4.1-5.7 13.7-3.3 19.6.8 1.8 1.8 3.6 3 5.2 1.1 1.5 2.3 3.2 3.6 4.5-.5.5-1.3.8-2 1-3.2 1-6.2 1.4-9.6 1.4-6.7-.1-13.3-1.8-19-5.3-10.5-6.5-17.1-18.1-20.4-29.7-7.2-25.4-5.3-52.8-4.1-78.9h-2.8c-1.7 14.4-1.8 29-1.2 43.5.9 22.8 4.1 51.9 24.1 66.6 6.3 4.6 14.7 7.1 22.5 7.3 3.2.1 6.3-.2 9.4-1 1.5-.4 3-.8 4.5-1.3l1.6-.8c3.1 1.7 6.4 3.3 9.8 4.4 3 1 7.1 2.4 10.3 1.8-5.2 7.1-12.5 11.1-20.8 13.3-8.7 2.3-18.1 3.1-26.9.9-7.5-1.9-15.5-5.2-21.2-10.5-12.1-11.2-19.4-26.8-23.9-42.5-3.8-13.3-5.5-27-6.2-40.8-.3-6.7-.4-13.4-.4-20.1 0-6.2 1.4-14.1-.5-20h-1.4c-1.2 3.2-.9 7-1 10.4-.1 3.8-.1 7.6-.1 11.4 0 7.9.2 15.7.8 23.6 1 13.9 3.1 27.8 7.4 41.1 4.2 13 10.4 26 19.8 36.1 8.3 8.9 20.7 13.7 32.6 15.1 5 .6 10.1.5 15.1-.3 6.9-1 13.5-3.3 19.5-6.9 4.6-2.7 8.7-6 11.4-10.6.1-.1.2-.3.3-.4.2-.1.4-.2.7-.2 3.8-.3 7.3-1.9 10.3-4.2 1.3-1 2.5-2.2 3.3-3.7.2-.3 1.8-4.4 1.3-4.4 8 .7 16.9-2 22.5-6.2 5.8-4.3 9.6-10.3 12.9-16.6 2.9-5.6 5.5-11.3 8-17 .1-.2.2-.3.3-.5.2-.2.6-.3.9-.4 5.4-1 11.2-2.1 16.4-3.9 5.2-1.8 10.2-4.4 14.2-8.4 6.4-6.4 9.6-16 5.8-24.4zm-8.1 21.3c-3.4 3.6-8 6.1-12.7 7.8-3.4 1.2-6.8 2-10.3 2.6-2.7.5-6.3.6-8.2 2.8-1.3 1.5-1.5 3.6-2.3 5.4-3.2 7-6.4 14.1-10.9 20.3-9.6 13.2-26.4 17.5-41.3 10.8-.1-.1-.2.1-.2.2.3.3.5.6.8.9 1.2 1.1 2.6 2 4 2.8.8.4 1.6.7 2.4 1 .6.2 1.8.3 2.3.7 1.5 1.3-2.2 5.4-3.4 6.3-4 3.4-9.8 4.2-14.9 3.8-9.5-.8-19.2-6.4-23.9-14.9-1.7-3-2.5-6.4-2.3-9.8.2-3.2 1.5-5.5 2.9-8 3.8 6.6 10.8 11 18.3 11.8-1.3-.1-3-1.3-4.1-2-1.4-.8-2.7-1.7-4-2.6-2.5-1.9-4.8-4.2-6.7-6.7-4.1-5.4-4-12.9-4.6-19.4-.9-10.1-9.5-15.5-16.8-21.1-4.7-3.6-9.2-8-9.7-14.3-.5-7.2 4.3-14 11.3-15.7 5.4-1.3 10.1.5 14.7 3.2 2.1 1.2 4 2.7 5.7 4.4 6 6 8.4 14.7 9 23 .5-2.3.7-4.6.8-6.9.1-3.1 2.5-5.6 4-8.2 1.9-3.2 3.6-6.4 5.2-9.7 3.2-6.5 5.8-13.4 7.7-20.4 1.8-6.8 2.9-13.9 5.8-20.4 3.9-9 20-23.2 28-10.4 1.5 2.5 2.2 5.4 2.2 8.3 0 2.6-.2 4.9-1 7.5-1.9 6.1-4.7 11.9-7.6 17.6-2.9 5.5-5.6 11.1-8.5 16.6 0 .1-.1.1-.2.2s-.2 0-.2 0c-2-.7-4.1-.8-6.1-.2.7-.2 1.9.8 2.4 1.1 1 .6 2.2 1.1 3.3 1.6 2.2 1.1 4.3 2.2 6.5 3.3-.3-.7-.7-1.3-1.1-1.9-.4-.5-1.3-1-1.5-1.5-.5-1.2 1.1-2.8 1.7-3.8 1.9-2.9 3.7-5.8 5.7-8.7 5-7.6 10.4-15 16.8-21.5 4.3-4.3 9.4-8.2 15.8-8 1.4.1 2.7.4 3.9.9 4.8 2.9 7.5 8 6.1 14.3-1.3 6.2-4.4 11.3-8.6 16.1-4.5 5.1-9.3 9.9-14.1 14.8-2.4 2.4-4.8 4.9-7.1 7.3-.8.9-1.4 2-2.4 2.7-.7.6-1.1.3-1.9.1-.8-.2-1.7-.3-2.6-.3l6.2 5.5c1 .9 2 1.9 3 2.7.4.3 2.6 1.2 2.7 1.6-.1-1.1-.6-2.1-1.4-2.8 8.2-5.7 16.8-10.4 25.5-15.4 6.8-3.9 16.2-4.1 20.6 3.2 4.4 7.4.7 15.7-4.7 21.4z"></path><path class="st0" d="M115 190.2c-3-2.4-5.9-2-7.8-1.3-4.1 1.5-7.7 5.9-8.6 10.4l-.1.3-.3.2c-.3.3-.3.5-.4 1 0 .3 0 .5-.1.8-.5 2.5-1.2 5-1.9 7.4l-.3.9c-.8 2.7-1.5 5.4-2.3 8-.9 3.2-1.8 6.4-2.7 9.5-3.1 11-6.3 22.8-9.3 34.8-.3 1.3-.6 2.5-.9 3.8-3.8 15.5-7.8 32.2-12.5 52.7l-.2 1-.9-.3c-5.8-1.8-12.5 0-17.2 4.7-3.2 3.2-5.2 7.6-5.6 12.2-.2 2.2 0 4.3.6 6.5.2.8 1.9 5.5 2.4 6.1-.1-.1-.4-.3-.8-.1l.7 1.6-1.8.9c-1.9.9-3.8 2.1-5.6 3.6-2 1.7-3.5 3.7-5.1 5.9-1.1 1.5-2.2 3-3.6 4.5-2.4 2.5-5.4 3.9-8.3 5.3-1.3.6-2.6 1.2-3.9 1.9-3.1 1.7-6 4-8.7 6.9-5.6 5.9-10.4 16.6-8.6 24.3.9 4.2 3.6 7.1 8 8.8l.6.2-.1 1c-.2 4 .4 7.7 2 10.9s4.9 5.5 8.9 6c1.9.2 3.8.1 5.7-.3 1-.2 1.9-.6 2.7-1 .4-.2.8-.3 1.2-.3.9 0 1.5.6 2 1.2.1.1.3.3.4.5l.2.2c.2.2.3.4.5.5.9.7 1.6 1.2 2.5 1.6 1.8.9 3.8 1.4 5.8 1.6 4.1.5 8.3-.4 11.6-2.5.8-.5 1.6-1.1 2.3-1.7 4.2-3.8 5.9-9.1 6.9-13.4.2-.9.4-1.9.6-2.8.6-3 1.3-6.1 2.4-9.1.1-.2.2-.6.5-.9.3-.3.6-.5 1-.7 3.4-1.6 6.4-1.5 9.6-1.2l.7.1.1.7.3 1.8c.6 3.8 1.2 7.4 3.3 10.9 2.3 3.8 5.8 6.7 9.9 8.1 3.2 1.1 7.6 1.3 11.4.6 3.3-.7 6.9-3.2 9.1-6.5 2.5-3.6 3.1-8.4 1.8-12.9-1.2-4-4.1-7.4-6.8-10.6l-.1-.1c-2.8-3.3-2.9-7.4-2.9-11.3 0-1.1 0-2.3-.1-3.5-.2-3.1-.7-6.7-1.9-10-1.3-3.3-3.7-7.7-8.3-10l-1.3-.6 1.1-.9c3.2-2.5 5.5-5.8 6.6-9.6 2.2-7.9-2.1-16.8-9.9-20.7h-.1l-.7-.3.1-.7c3.4-18.7 6.9-35.6 10.7-51.8.7-2.9 1.4-5.8 2-8.7 1.7-7.1 3.4-14.5 5.3-21.7 1.5-5.6 3.1-11.4 4.6-16.9l.7-2.4c1-3.7 2.1-7.5 3.1-11.2.1-.2.1-.4.1-.7v-.3l.2-.2c2.4-2.4 3.7-7.2 3.9-10.9.4-5-1.3-9.3-4.4-11.8z"></path><path class="st1" d="M65.6 319.2c-1.1-.4-2.4-.4-3.6-.3-4.7 0-9.2 2.1-12.5 5.4-3.2 3.2-5.2 7.6-5.6 12.2-.2 2.2 0 4.3.6 6.5.2.8 1.9 5.5 2.4 6.1-.1-.1-.4-.3-.8-.1 0 0 .7 1.6.7 1.7l-1.8.9c-1.9.9-3.8 2.1-5.6 3.6-2 1.7-3.5 3.7-5.1 5.9-1.1 1.5-2.2 3-3.6 4.5-2.4 2.5-5.4 3.9-8.3 5.3-1.3.6-2.6 1.2-3.9 1.9-3.1 1.7-6 4-8.7 6.9-5.6 5.9-10.4 16.6-8.6 24.3.9 4.2 3.6 7.1 8 8.8l.6.2-.1 1c-.2 4 .4 7.7 2 10.9s4.9 5.5 8.9 6c1.9.2 3.8.1 5.7-.3 1-.2 1.9-.6 2.7-1 .4-.2.8-.3 1.2-.3.9 0 1.5.6 2 1.2.1.1.3.3.4.5l.2.2c.2.2.3.4.5.5.9.7 1.6 1.2 2.5 1.6 1.8.9 3.8 1.4 5.8 1.6 4.1.5 8.3-.4 11.6-2.5.8-.5 1.6-1.1 2.3-1.7 4.2-3.8 5.9-9.1 6.9-13.4.2-.9.4-1.9.6-2.8.6-3 1.3-6.1 2.4-9.1.1-.2.2-.6.5-.9.3-.3.6-.5 1-.7 3.4-1.6 6.4-1.5 9.6-1.2l.7.1.1.7.3 1.8c.6 3.8 1.2 7.4 3.3 10.9 2.3 3.8 5.8 6.7 9.9 8.1 3.2 1.1 7.6 1.3 11.4.6 3.3-.7 6.9-3.2 9.1-6.5 2.5-3.6 3.1-8.4 1.8-12.9-1.2-4-4.1-7.4-6.8-10.6l-.1-.1c-2.8-3.3-2.9-7.4-2.9-11.3 0-1.1 0-2.3-.1-3.5-.2-3.1-.7-6.7-1.9-10-1.3-3.3-3.7-7.7-8.3-10l-1.3-.6 1.1-.9c3.2-2.5 5.5-5.8 6.6-9.6 1.3-4.7.3-9.8-2.3-13.8-1.4-2.2-9.4-10.9-9.7-4-.1 3.1-.8 6.3-2.1 9.1-.2.5-.5 1.1-1 1.5-.5.4-1.1.5-1.6.6-4.5.8-9.2-.1-13.1-2.5-1-.6-2-1.4-2.7-2.4-1.7-2.5-1.1-5.9-.4-8.8.6-2.3 1.3-4.9.8-7.3-.1-1.2-.8-1.7-1.7-2z"></path><path class="st2" d="M11 409c.7-1.5 1.2-3.2 1.9-4.5 1.4-2.7 2.6-5.6 3.9-8.4 1-2.1 2.1-3.9 3.5-5.8 1.7-2.3 3.8-4.9 6-6.7 1.4-1.1 2.4-1.8 2.6-3.6.2-1.8.2-3.8-.3-5.6-.4 1.5-.6 3-1.3 4.3-1 1.9-2.7 3.3-4.3 4.8-6.1 5.4-10.8 12.3-13.6 20-.4 1.1-1 2.5-2.2 2.6-1.5.1-2.4-1.8-3.8-2.1-.1 0 .4 3 .5 3.2.3 1 .7 1.9 1.3 2.8.3.5.7 1 1.2 1.3 1.2.7 2.8.2 3.7-.9.3-.2.7-.8.9-1.4zm75.7-67.2c1.3-.2 2.2-1.3 3.5-1.7 1.4-.5 3.1-.2 4.2.9.9.9 1.3 2.1 1.6 3.3 1 4.5-.2 9.4-3.1 13 2.9-3.1 5.7-6.2 6.9-10.4 1-3.9-.4-8.7-2.5-12-1.4-2.2-9.4-10.9-9.7-4-.1 3.5-.9 6.9-1.4 10.4 0 .2 0 .3.1.5h.4zm-39.5 7.1c2 3.1 4.7 5.9 7.5 8.3.3.2.6.5.9.4-3.3-3.8-5.1-8.7-5.9-13.7-.4-2.5-.5-5 0-7.4.5-2.4 1.7-4.8 3.7-6.3 1.6-1.3 4.6-2.5 6.7-1.4 1.8 1 3.6 2.8 5.1 4.3l.6.6c-.1-1.7.3-3.5.7-5.1.6-2.3 1.3-4.9.8-7.3-.2-1-.9-1.6-1.7-1.9-1.1-.4-2.4-.4-3.6-.3-4.7 0-9.2 2.1-12.5 5.4-3.2 3.2-5.2 7.6-5.6 12.2-.2 2.2 0 4.3.6 6.5.6 1.8 1.5 3.8 2.7 5.7zm-19.3 69.6c-.8-4.5-.6-8.8.5-13.6.5-2 1.1-4.1 2-6 .6-1.2 1.3-2.3 2.1-3.4 1.9-2.9 4.8-5.5 6.5-8.6 1.5-2.7.9-6-1.1-8.3.3 2 .5 4.3-.6 6-.4.6-.9 1.1-1.4 1.6-6 6.1-9.9 14.2-11.1 22.7-.7 5-.4 10.1-1.8 15-.1.5-.3 1-.7 1.4-.3.3-.6.5-1 .6-2.1.8-4.4.8-6.4-.1.6.2 1.6 2.5 2.4 3 1.1.9 2.3 1.1 3.7 1.2 1.9.1 5.5.5 7.1-.6 2.1-1.4 1.1-5.3.6-7.3-.3-1.1-.6-2.4-.8-3.6zm81.8 0c.3-.5.5-1.1.7-1.6-.4 1.5-7 1.7-8.2 1.6-2.8-.1-5.8-.9-8.4-1.9-4.9-2-8.8-6.6-10.3-11.6-.6-2-1-4.2-2.6-5.4-.7-.5-1.5-.8-2.3-1-5-1.5-10.4-1.6-15.4-.5-1.1.2-2.2.6-2.9 1.5-.6.7-.8 1.7-1 2.6-.9 6 .2 12.5-2.5 17.9-.9 1.9-2.3 3.5-3.8 5-4.1 4-9.3 6.9-14.9 8.1-.1 0 1.6 1.3 1.8 1.4.9.3 1.6.2 2.4 0 1.8-.3 3.4-1 5.3-1.2 2.9-.3 5.8-1 8-3 4.2-3.8 5.9-9.1 6.9-13.4.2-.9.4-1.9.6-2.8.6-3 1.3-6.1 2.4-9.1.1-.2.2-.6.5-.9.3-.3.6-.5 1-.7 3.4-1.6 6.4-1.5 9.6-1.2l.7.1.1.7.3 1.8c.6 3.8 1.2 7.4 3.3 10.9 2.3 3.8 5.8 6.7 9.9 8.1 3.2 1.1 7.6 1.3 11.4.6 2.9-.6 6-3.1 7.4-6z"></path><path class="st3" d="M113 225.5c1-3.7 2.1-7.5 3.1-11.2.7-2.6-1-5.9-2.2-1.9-2.1 6.8-3.9 13.8-5.8 20.7-1.3 4.6-2.5 9.3-3.7 14-2.3 9.1-4.5 18.3-6.6 27.5-5 21.9-9.8 43.8-13 66-3.7.6-7.6.6-11-.6-2.9-1-4.7-2.7-6.5-5.1-.2-.3-.4-.6-.5-1v-.8c1.4-9.5 3.9-18.9 6.3-28.2s4.6-18.6 6.8-27.9l2.4-10.2c2.7-11.3 5.9-22.7 9-33.9 3.2-11.5 7.1-23.1 9.2-34.9-.1.6-2.4.8-2.8 1.2-.9.8-.6 1.4-.8 2.4-.5 2.8-1.3 5.5-2.1 8.3-1.6 5.9-3.3 11.7-5 17.6-3.2 11.6-6.4 23.1-9.3 34.8-.3 1.3-.6 2.5-.9 3.8-4.4 17.5-8.5 35.1-12.5 52.7-6.4-2-13.5.3-18.1 4.9-3.4 3.4-5.5 8-5.9 12.8-.2 2.3 0 4.5.6 6.8.2.6 2.3 6.8 2.8 6.6-.6.3-1.3.6-1.9.9-2.1 1-4 2.3-5.7 3.7-3.6 3.1-5.5 7-8.7 10.4-3.3 3.5-7.9 4.7-12 7-3.3 1.9-6.3 4.3-8.9 7-8.3 8.7-15.7 28.7-.4 34.6v.4c-.2 3.9.3 7.8 2.1 11.3 1.8 3.7 5.6 6 9.6 6.5 2 .3 4.1.1 6-.4 1-.2 1.9-.6 2.9-1 1.4-.6 1.6.2 2.6 1.2.3.3.5.6.8.8.9.7 1.6 1.3 2.6 1.7 1.9.9 4 1.5 6.1 1.7 4.2.5 8.6-.4 12.2-2.6.9-.5 1.7-1.1 2.4-1.8 4.1-3.6 5.9-8.6 7.1-13.9.9-4 1.5-7.9 3-11.8l.3-.6c.2-.2.4-.4.7-.5 3.1-1.5 5.8-1.5 9.1-1.2.8 4.6 1.2 8.9 3.7 13 2.4 4 6 7 10.4 8.5 3.6 1.2 8.2 1.3 11.9.6 3.9-.8 7.5-3.7 9.7-6.9 2.7-3.9 3.3-9.1 1.9-13.6-1.3-4.3-4.3-7.7-7.1-11.1-3.4-4-2.5-9.3-2.9-14.2-.3-3.5-.7-7-2-10.2-1.7-4.4-4.5-8.4-8.7-10.5 3.2-2.5 5.7-6 6.9-10.1 2.4-8.7-2.6-17.9-10.4-21.8h-.1c3.1-17.4 6.6-34.6 10.7-51.8 2.4-10.1 4.7-20.3 7.3-30.4 1.8-6.4 3.5-12.8 5.3-19.3zM97.7 348.1c-1.9 8.9-9.9 13-18.2 14-.6.1-.6.9 0 .9 4.1.4 8.2-.7 11.7-2.7 5 3 7.8 7.5 9.1 13.2 1.3 5.8.2 12 1.7 17.6 1.2 4.6 6.2 7.6 8.3 11.9 1.3 2.6 2.1 5.7 1.7 8.6-.4 3-1.4 4.7-3.6 6.8-4.6 4.2-11.1 5.2-17 3.2C83 418.9 78 410.7 79 402c.1-.8-.7-1.2-1.3-1.3-3.7-.4-9.8-.7-12.7 2.1-3.3 3.2-3.4 9.6-4.4 13.8-1.6 6.2-4.2 11.9-10.3 14.7-5.4 2.5-12.2 1.9-16.4-2.5-1.8-1.9-2.4-3.3-3.1-5.7-1.9-6.3-1-13.5.9-19.7 1.9-6.2 5.1-10.9 8.9-16.2 2.1-2.9 1-5-1.2-7.9-.3-.4-1-.1-.9.4.1 1.3.8 2.6.8 3.8.1 2-1.6 3.3-2.8 4.8-1.6 2-2.9 4.2-4.1 6.5-2.8 5.3-4.4 10.9-5.1 16.9-.6 5.3-.3 11 2 15.8-6.9 2.1-14.3 2.3-16.8-6.1-2-7-.3-14.3 2.7-20.7 2.7-5.8 7-10.6 11.3-15.3 1.2-1.3 3.6-3.1 4.2-4.8.5-1.6-.9-4.6-1.4-6.2-.1-.3-.6-.2-.6.1 0 2 .5 4.4-.7 6.1-1 1.5-3 2.9-4.2 4.2-2.4 2.6-4.8 5.4-6.9 8.3-3.8 5.3-6.7 10.9-7.7 17.2-7.6-4-7.7-13.5-4.4-20.7 1.7-3.7 4.1-7 7-9.9 1.4-1.5 3-2.8 4.6-4 1.8-1.3 3.6-2.3 5.6-3.4 2.6-1.4 5.2-2.8 7.7-4.3 1.8-1.1 2.8-2.7 4.1-4.4 2.2-2.8 4.1-5.6 6.7-8.1 2.1-2 4.5-3 7-4.3 3.4 4.7 8.4 8.4 14.2 9.8.5.1.9-.6.4-.9-5.8-3-11.4-7.2-14.4-13.1-3.2-6.3-2.8-14.6 1.5-20.2 3.1-4.1 8.7-6.5 13.8-6.1 1.2.1 2.3.4 3.3.6-.7 3.2-1.5 6.5-2.2 9.7-.4-.6-.7-1.3-1.1-2-.4-.7-1.4-.2-1.1.5 2 5.3 5.2 10.7 10.7 12.9 5.1 2.1 13.9 2 18-2.1.5-.5.2-1.7-.7-1.4-.8.2-1.6.5-2.4.7.6-3.4 1.2-6.7 1.8-10.1 6.5 3.8 10 11.3 8.4 18.6z"></path><path class="st1" d="m380.3 159.4 65.3-7.1L251.8 1.8 26.2 200.1l34.4 32.6 50.6-44.5c8.5 46.6 19.9 117.5 21.4 169.6l.7 23.4 23.2-3.2c1.3-.2 129.1-17.4 226.5.9l7.8-41.4-10.5-178.1z"></path><path d="M173.5 333.7c-4.3-62.9-18-139.2-25.6-177.8l109.5-96.2 122.9 99.7 65.3-7.1L251.8 1.8 26.2 200.1l34.4 32.6 50.6-44.5c8.5 46.6 19.9 117.5 21.4 169.6l.7 23.4 23.2-3.2c1.3-.2 129.1-17.4 226.5.9l7.8-41.4c-79.7-14.9-174.5-8.2-217.3-3.8z" style="fill: rgb(162, 180, 192);"></path><path d="M173.5 333.7c-4.3-62.9-18-139.2-25.6-177.8l109.5-96.2 122.9 99.7 65.3-7.1L251.8 1.8 26.2 200.1l34.4 32.6 50.6-44.5c8.5 46.6 19.9 117.5 21.4 169.6l.7 23.4 23.2-3.2c1.3-.2 129.1-17.4 226.5.9l7.8-41.4c-79.7-14.9-174.5-8.2-217.3-3.8z" style="fill: none; stroke: rgb(5, 10, 30); stroke-width: 3.58; stroke-linejoin: round;"></path><path class="st3" d="M222.6 65.9c.5.9.9 1.9 1.2 3 .9 3.3.7 6.9-.7 10-2.3 5.1-7.9 6.4-12.6 8.6-10.3 4.7-20.9 8.7-31.7 12.1-5.3 1.7-9.2.1-10.1-5.7-1.5-9.9 2.9-20.2 10.7-26.2 9.6-7.3 22.4-9.6 34.2-8 4.1.5 7.2 2.8 9 6.2zm126.1 15.7c-1.7 0-3.3-.6-4.8-1.1-9.6-3.4-19.1-6.8-28.7-10.2-4.3-1.5-8.9-3.2-11.5-7-1.5-2.1-2.2-4.7-2.4-7.2-.2-2.4.1-4.8 1-7 2.4-5.2 8.4-7.7 14-8.8 10.6-2.1 19 1.8 27.4 8.2 7 5.3 19.5 15.3 15.1 25.9-1.5 3.5-6.3 7.2-10.1 7.2z"></path><path class="st2" d="M335.6 202.7c-5.7-.6-11.4-1.2-17.2-1.7-21.4-1.7-42.8-1.9-64.2-.9-19.7 1-39.5.7-58.3-6.2-.9-.3-1.9-.8-2.1-1.8-.2-.7.2-1.4.5-2 1.7-3.1 4.5-5.4 7.7-6.6-15.7-1.9-32 3.2-44.3 13.7 5-.8 10.1-1.5 14.9.1 15.8 5.1 27.2 15.9 37.2 29.4 5 6.7 9.7 13.8 15.9 19.4 6 5.4 13.3 9.1 20.7 11.8 13.9 5.2 28.8 7.3 43.5 6.9 14.1-.4 28.7-2.2 41.2-9.5 2.6-1.5 5.3-3.7 5.3-6.8 0-2.8-.8-4.7.3-7.4 1.2-2.8 3.1-5.7 4.6-8.3 4.5-7.9 8-16 15.8-21.1 7-4.6 16-5.9 23.5-2.4-2-4.6-6-8.1-10.3-10.3-4.4-2.2-9.1-3.4-13.9-4.5 1.6 1.1 1.8 3.6.9 5.3-.9 1.7-2.7 2.8-4.5 3.3-3.7 1.2-7.8.7-11.6.2-1.7-.2-3.7-.4-5.6-.6z"></path><path class="st1" d="M317.3 208.9c-3.2 0-6.5.3-9.6.1-2.3-.2-4.3-1.4-6.6-1.7-6.7-.9-13.5-.9-20.3-.9-20.2-.1-40.4-.8-60.5-2.2-6.9-.5-13.8-1-20.4-3.1 1.5.5 3.5 3.5 4.5 4.6 1.5 1.8 3 3.7 4.4 5.6 2.8 3.9 5.3 7.9 7.9 11.9 5.3 7.9 11 15.6 18.4 21.7 10 8.2 22.5 12.9 35.3 14.6 12.8 1.8 25.8.7 38.5-1.6 6.8-1.3 13.7-3 19.4-6.9 1.1-.8 2.2-1.6 2.9-2.8.8-1.5.9-3.2 1.2-4.9.6-3.5 2.4-6.6 4-9.8 3.2-6.4 5.7-13.3 7.2-20.3.1-.6.3-1.3.1-1.9-.3-1.4-1.8-2.3-3.2-2.5-6.5-.9-13.6-.1-20.1 0-1.2 0-2.2.1-3.1.1z"></path><path d="m316.1 208-38.6-.6c-8-.1-16.2-.6-24.2-.3s-16.1 1.1-24.1-.3c-.3-.1-.6-.1-1-.2-8.7-1.7-17.4-2.9-26.2-3.7 4 6.1 8.1 12.3 12.1 18.4 3.7 5.6 7.4 11.2 11.9 16.2 4.9 5.5 10.8 10 17.2 13.4 3.1 1.7 6.4 3.1 9.7 4.2 2.8.9 6.8 1.5 9.3 3.1-5-3.1-7.5-7.6-7.3-13.9 10.3.4 20.6-.5 30.6-2.8-6.1.2-12.4-1.4-18.4-2.5-6.3-1.1-12.6-2.5-18.9-4-3.7-.9-9.4-1.2-11.4-5-2.6-5-3.5-11.6-3.8-17.2 33.6-1.9 67.3-.3 100.9 1.4.6 0 1.3.1 1.8.5.7.7.6 1.9.4 2.9-.8 4.1-1.8 8.2-3 12.3-.8 2.5-1.2 5.5-3.1 7.4-2 2-5.4 2-7.9 3.1 1.1 2 1.5 4.3 1.5 6.6s-.2 4.6-.1 6.9c1.3-.7 2.6-1.3 4-2 .2-.1.4-.2.5-.4.1-.2.1-.5.1-.8.1-4.1 2-9.4 3.6-13.1 1.9-4.3 4.4-8.1 6.1-12.6 1-2.8 2.3-5.5 3.1-8.3.5-1.6 2.4-5.8 1.2-7.2-.5-.6-1.2-.7-1.9-.8-4-.4-8.1-.5-12.1-.6-4.1 0-8-.1-12-.1z" style="opacity: 0.1; fill: rgb(13, 28, 73);"></path><path class="st3" d="M358.8 199.1c.9.9 1.7 2 2.1 3.2-2.7 1.1-4.9 3-7.8 3.8-3.1.9-6.3 1-9.5.9-7.7-.2-15.5.1-23.2-.2-15.1-.5-30.2-1.6-45.4-1.8-14.1-.3-28.2.2-42.3-.6-6.3-.4-12.6-1.5-18.8-2.8-5.1-1.1-10.8-1.5-15.6-3.9-2.6-1.4-5-3.4-7.3-5.4-.5-.4-1-.9-1.1-1.5s.3-1.5.9-1.4c-1.9-1.4-4.5-1.2-6.7-.7-3.6.9-7 2.7-9.8 5.2 2.8.5 5.6-.4 8.4-.3 4.3.2 8.2 2.8 11.7 5.5 10.1 7.6 16 20.1 23.8 30.2 6.3 8.1 13.2 15.8 21.4 21.7 8.5 6.2 18.6 9.3 28.6 11 11 1.8 22.1 1.8 33.1.5 10.3-1.3 20.5-4.1 29.1-10.8.5-.4 1.1-.9 1.3-1.5.2-.7 0-1.4-.6-1.8 1.1-2.1 1.6-5 2.5-7.3 1.1-2.8 2.2-5.6 3.4-8.4 2.4-5.6 5-11 7.8-16.3.8-1.6 1.7-3.2 2.9-4.4 2.9-2.9 8.1-3.2 11.6-5 2.9-1.4 5.6-2.9 8.9-2.5 1 .1 1.9.4 2.8.8.5.2 1 .4 1.5.7-3.6-4.1-8.6-6.6-13.7-6.9zm-40.2 40.2c-5.9.9-11.9 1.5-17.8 1.6-.2 0-.2.3 0 .3 6 .6 12 .9 18 .3 2.6-.3 5.5-.3 8-1 .1 3.1 0 6.2-.2 9.3 0 .4 0 .7-.2 1-.2.4-.7.6-1.1.8-5.1 2.4-10.2 4.9-15.6 6-12.7 2.6-23.9 3.5-36.8 1.6-11.8-1.7-21.4-3.9-31.2-11.6-1.8-1.4-3.6-3-5.2-4.6-1.4-1.3-3.7-3-4.3-5 11.6 2.5 23.5 3.4 35.4 2.6-3.6.2-7.7-.9-11.3-1.4-3.9-.6-7.8-1.3-11.7-2.2s-7.7-2-11.4-3.4c-3.3-1.2-7.7-2.4-10-5.3-1.8-2.3-3.6-4.6-5.3-6.9-4.3-5.7-8.6-11.5-12.8-17.3 11.2 2.5 23 4.1 34.4 4.3 16.3.2 31.9-.6 48.2-.1 8.9.3 17.8.9 26.7 1.5 2.2.1 25.1 2.1 25.2 1.3-1.3 7.2-3.3 14.3-5.8 21.1-.4 1.1-.9 2.3-1.6 3.1-2.8 3.3-10 3.5-13.6 4z"></path><path d="M300.1 279.6c-6.3 1.4-13.3 2.5-20.4 1.9-7.9-.7-14.5-3.4-21.3-6.4-.2-.1-.4 0-.3.2 4.8 4.7 13.8 7.4 21.9 8.2 7.9.7 15.2-.2 20.4-3.5.3-.2 0-.5-.3-.4z" style="opacity: 0.6; fill: rgb(5, 10, 30);"></path><path class="st1" d="M254.8 117.5c-3.3-6.2-7.5-10.6-13.3-14.1-5.6-3.3-12-5.3-18.3-5.6-8.8-.5-17.8 1.9-25.2 6.9-6.6 4.4-11.5 11.7-13.8 20.6-.2.6-.3 1.2-.4 1.8-1 4.6-1.4 9.7-.9 14.7.4 4.8 1.7 9.8 3.7 14.1.2.5.5 1 .9 1.3.6.5 1.4.5 2.1.6.6.1 1.3.1 2 .2 6.5.8 12.8 2.9 18.9 5.3 1.3.5 2.6 1 3.9 1.4 1.8.6 3 2.1 4.9 2.4 2.1.3 4 .8 5.9 1.9 2.8 1.7 5 4.5 8.2 5.3.9.2 1.5-.2 2.4-.3 1-.1 1.7-.2 2.6-.7 2.7-1.2 5.2-2.6 7.5-4.2 3.8-2.6 6.7-5.7 8.8-9.1 2.6-4.2 4.5-9.1 5.4-14.3 1.4-8.6-.5-19.2-5.3-28.2z"></path><path class="st2" d="M254.8 117.5c-3.3-6.2-7.5-10.6-13.3-14.1-5.6-3.3-12-5.3-18.3-5.6-8.8-.5-17.8 1.9-25.2 6.9-5.8 3.9-10.5 8.4-13 15.1-2 5.5-2.6 11.4-2.7 17.2 0 4.5.2 9.2 1.8 13.4.2-8.5.4-17.2 3.6-25.1 2.6-6.3 6.6-12.2 12.1-16.4 8.3-6.4 19.3-8.9 29.5-6.2 6.2 1.7 12.1 5 16.7 9.5 10.2 9.9 14.6 25.2 12.4 39.3 2.8-11.5 2.1-23.4-3.6-34z"></path><path class="st3" d="M233.6 173.5c-2.3-1.7-4.6-3.3-7-4.8-5.3-3.2-11.1-5.7-17-7.6-5.2-1.6-10.5-3-15.9-3.8-2.8-.4-5.6-.6-8.5-.7-2.4-.1-4.4.1-6.8.4-1.7.2-3.4.6-5 1-.5.1-.6.9 0 1 5.6.6 11.2.3 16.8.9 6.2.7 12.3 2 18.3 3.9 11.3 3.6 22 9.5 31.7 16.2.3.2.6-.2.4-.4-2.1-2.1-4.5-4.2-7-6.1z"></path><path class="st3" d="M262.5 128.9c-2-15.6-11.7-29.5-26.5-35.1-13.7-5.2-29.7-1.6-40.7 7.8-7.3 6.3-12.2 15.2-14.1 24.6-2.2 10.7-.6 22.5 5.5 31.6.1.1.2.3.3.4.1.1.3.1.4.1 1 0 1.9-.1 2.9-.1-4.1-4.7-6-10.4-6.5-16.4-.4-4.8-.1-9.7.9-14.4.1-.6.3-1.2.4-1.8 2.1-7.9 6.5-15.5 13.4-20.1 7.2-4.8 16-7.3 24.7-6.8 6.3.4 12.5 2.3 17.9 5.5 5.8 3.4 9.8 7.8 13 13.7 4.4 8.2 6.7 18.5 5 27.7-.9 4.9-2.7 9.8-5.3 13.9-2.2 3.5-5.2 6.5-8.6 8.8-2.3 1.6-4.8 3-7.3 4.1-1.3.6-2.6 1.1-3.9 1.5-.4.1-.8.3-1.2.4.6.6 1.1 1.1 1.8 1.6l.1.1c.2.1.3.3.4.5 1.3-.5 2.6-1 3.9-1.6 4.2-1.7 8.3-4 11.5-7.3 3.1-3.2 5.7-7 7.6-11 4.1-8.5 5.6-18.3 4.4-27.7z"></path><ellipse class="st0" cx="223.5" cy="138.4" rx="24.5" ry="24.8" transform="rotate(-7.129 223.585 138.45)"></ellipse><ellipse class="st3" cx="223.5" cy="138.4" rx="17.7" ry="18" transform="rotate(-7.129 223.585 138.45)"></ellipse><path class="st1" d="M240.8 134c.5-.2.9-.5 1.3-.9 1.9-1.6 3.1-4.2 2.5-6.6-2.1-8.6-17.7 1.3-12.5 7.5.7.9 1.9 1.1 3.1 1.1 1.9.2 3.9-.2 5.6-1.1z"></path><path class="st9" d="M207 146c.4-.1.7-.4 1-.7.9-1 .8-2.8-.2-3.7-2.6-2.4-6.8 1.6-3.5 4 .8.6 1.8.7 2.7.4z"></path><path class="st10" d="M244 147.8c1-2.3 4.6-10-.1-10.9-1.5-.3-3 .5-4.4 1.2-10.1 5.1-21.9 6.6-33 4.3-5.2-1.1-4.8 1.8-3.1 5.3 1.8 3.6 3.6 7.1 6.9 9.6 11.3 8.3 28.2 2.9 33.7-9.5z"></path><path class="st1" d="M353.5 123.1c-.8-10.5-6.9-21.3-15.1-27-6.9-4.7-15.2-7.1-23.6-6.6-7.4.4-14.8 3.2-20.8 7.7-6.7 5.1-10.5 12.9-12.6 18.6-2.2 6-2.9 12.2-2.2 17.8.7 5.5 2.4 10.9 5 16.2 4.3 8.6 11.6 15 20.6 18 4.1 1.4 8.6 2.1 13.2 2.1h.4c4.3 0 8.3-1.3 11.7-2.5h.1c.3-.1.6-.2.9-.4.4-.2.6-.6.9-.9 3.9-4.9 8.8-8.9 14.4-11.9.1-.1.3-.1.4-.2.2-.1.4-.2.5-.4.2-.2.4-.5.5-.7l.3-.5c1.1-1.9 2.2-3.8 3-5.8.9-2.3 1.6-4.8 2-7.3 1-5.7.8-11.4.4-16.2z"></path><path class="st2" d="M353.5 123.1c-.8-10.5-6.9-21.3-15.1-27-6.9-4.7-15.2-7.1-23.6-6.6-7.4.4-14.8 3.2-20.8 7.7-6.7 5.1-10.5 12.9-12.6 18.6-2.1 5.9-2.6 12.2-1.8 18.4.1-6.6 1.7-13.1 4.3-19.2 1.3-3 2.8-5.9 4.8-8.5 6.3-8.3 17-12.8 27.4-12.1s20.2 6.2 26.7 14.3c6.5 8.1 9.8 18.6 9.8 29 1.3-4.9 1.3-9.4.9-14.6z"></path><path class="st3" d="M355.2 149.2c-1.5.6-3 1.3-4.5 2.1 2.6-3.2 3.9-8.1 4.5-11.6 1.2-6.4 1.3-13.3.2-19.7-2.2-13-8.8-25.2-20.3-31.9-11-6.5-25-6.2-36.2-.2-6.1 3.2-11.5 8.2-15.4 13.9-10.2 15-9.3 34.6-.8 50.1.1.2.2.5.4.7 9 15.9 28.1 23 45.5 17.4-1.6 2.5-2.8 5.1-3.2 7.9-.1.4.5.7.7.3 3.6-5.7 6.4-10.8 11.5-15.3 5.5-4.8 11.8-8.7 17.8-12.8.5-.6.2-1.1-.2-.9zm-8.9 4.1c-.1.1-.2.1-.4.2-5.7 3.1-10.6 7.1-14.6 12.1-.2.2-.4.5-.7.7-.2.2-.5.3-.8.4-3.7 1.3-7.5 2.4-11.4 2.5-4.5 0-9-.6-13.3-2.1-8.8-3-16-9.3-20.1-17.6-2.5-5-4.2-10.4-4.9-15.9-.7-5.9.2-11.9 2.2-17.4 2.5-6.8 6.4-13.8 12.3-18.2 5.8-4.4 13-7.1 20.3-7.5 8.1-.5 16.3 1.8 23 6.4 8.2 5.6 14 16.4 14.8 26.3.4 5.3.5 10.6-.4 15.9-.4 2.4-1.1 4.9-2 7.2s-2.1 4.2-3.3 6.2c-.1.2-.2.4-.4.6-.1 0-.2.1-.3.2z"></path><ellipse class="st0" cx="309.9" cy="134.9" rx="24.5" ry="24.8" transform="rotate(-7.129 309.919 134.961)"></ellipse><ellipse class="st3" cx="309.9" cy="134.9" rx="17.7" ry="18" transform="rotate(-7.129 309.919 134.961)"></ellipse><path class="st1" d="M327.1 130.5c.5-.2.9-.5 1.3-.9 1.9-1.6 3.1-4.2 2.5-6.6-2.1-8.6-17.7 1.3-12.5 7.5.7.9 1.9 1.1 3.1 1.1 1.9.2 3.9-.2 5.6-1.1z"></path><path class="st9" d="M293.3 142.5c.4-.1.7-.4 1-.7.9-1 .8-2.8-.2-3.7-2.6-2.4-6.8 1.6-3.5 4 .8.7 1.8.7 2.7.4z"></path><path class="st10" d="M330.3 144.3c1-2.3 4.6-10-.1-10.9-1.5-.3-3 .5-4.4 1.2-10.1 5.1-21.9 6.6-33 4.3-5.2-1.1-4.8 1.8-3.1 5.3s3.6 7.1 6.9 9.6c11.3 8.3 28.2 2.9 33.7-9.5z"></path></g></svg>