<svg id="Layer_1" viewBox="0 0 596.5 512.1" x="0" xml:space="preserve" xmlns="http://www.w3.org/2000/svg" y="0" class="css-1fz875y"><style>.st0{fill:#223a5c}.st1{fill:#fff}.st2{opacity:.3;fill:#737e8c;enable-background:new}.st3{fill:#050a1e}.st11,.st12{opacity:.5;fill:#fff;enable-background:new}.st12{opacity:.4}</style><g id="Layer_1_00000056410468795539382560000001629952544780843396_"><path class="st0" d="M115 182.6c-3-2.4-5.9-2-7.8-1.3-4.1 1.5-7.7 5.9-8.6 10.4l-.1.3-.3.2c-.3.3-.3.5-.4 1 0 .3 0 .5-.1.8-.5 2.5-1.2 5-1.9 7.4l-.3.9c-.8 2.7-1.5 5.4-2.3 8-.9 3.2-1.8 6.3-2.7 9.5-3.1 11-6.3 22.8-9.3 34.8-.3 1.3-.6 2.5-.9 3.8-3.8 15.5-7.8 32.2-12.5 52.7l-.2 1-.9-.3c-5.8-1.8-12.5 0-17.2 4.7-3.2 3.2-5.2 7.6-5.6 12.2-.2 2.2 0 4.3.6 6.5.2.8 1.9 5.5 2.4 6.1-.1-.1-.4-.3-.8-.1l.7 1.6-1.8.9c-1.9.9-3.8 2.1-5.6 3.6-2 1.7-3.5 3.7-5.1 5.9-1.1 1.5-2.2 3-3.6 4.5-2.4 2.5-5.4 3.9-8.3 5.3-1.3.6-2.6 1.2-3.9 1.9-3.1 1.7-6 4-8.7 6.9-5.6 5.9-10.4 16.6-8.7 24.3.9 4.2 3.6 7.1 8 8.8l.6.2-.1 1c-.2 4 .4 7.7 2 10.9s4.9 5.5 8.9 6c1.9.2 3.8.1 5.7-.3 1-.2 1.9-.6 2.7-1 .4-.2.8-.3 1.2-.3.9 0 1.5.6 2 1.2.1.1.3.3.4.5l.2.2c.2.2.3.4.5.5.9.7 1.6 1.2 2.5 1.6 1.8.9 3.8 1.4 5.8 1.6 4.1.5 8.3-.4 11.6-2.5.8-.5 1.6-1.1 2.3-1.7 4.2-3.8 5.9-9.1 6.9-13.4.2-.9.4-1.9.6-2.8.6-3 1.3-6.1 2.4-9.1.1-.2.2-.6.5-.9.3-.3.6-.5 1-.7 3.4-1.6 6.4-1.5 9.6-1.2l.7.1.1.7.3 1.8c.6 3.8 1.2 7.4 3.3 10.9 2.3 3.8 5.8 6.7 9.9 8.1 3.2 1.1 7.6 1.3 11.4.6 3.3-.7 6.9-3.2 9.1-6.5 2.5-3.6 3.1-8.4 1.8-12.9-1.2-4-4.1-7.4-6.8-10.6l-.1-.1c-2.8-3.3-2.9-7.4-2.9-11.3 0-1.1 0-2.3-.1-3.5-.2-3.1-.7-6.7-1.9-10-1.3-3.3-3.7-7.7-8.3-10l-1.3-.6 1.1-.9c3.2-2.5 5.5-5.8 6.6-9.6 2.2-7.9-2.1-16.8-9.9-20.7h-.1l-.7-.3.1-.7c3.4-18.7 6.9-35.6 10.7-51.8.7-2.9 1.4-5.8 2-8.7 1.7-7.1 3.4-14.5 5.3-21.7 1.5-5.6 3.1-11.4 4.6-16.9l.7-2.4c1-3.7 2.1-7.5 3.1-11.2.1-.2.1-.4.1-.7v-.3l.2-.2c2.4-2.4 3.7-7.2 3.9-10.9.5-4.9-1.2-9.3-4.3-11.8z"></path><path class="st1" d="M65.6 311.6c-1.1-.4-2.4-.4-3.6-.3-4.7 0-9.2 2.1-12.5 5.4-3.2 3.2-5.2 7.6-5.6 12.2-.2 2.2 0 4.3.6 6.5.2.8 1.9 5.5 2.4 6.1-.1-.1-.4-.3-.8-.1 0 0 .7 1.6.7 1.7l-1.8.9c-1.9.9-3.8 2.1-5.6 3.6-2 1.7-3.5 3.7-5.1 5.9-1.1 1.5-2.2 3-3.6 4.5-2.4 2.5-5.4 3.9-8.3 5.3-1.3.6-2.6 1.2-3.9 1.9-3.1 1.7-6 4-8.7 6.9-5.6 5.9-10.4 16.6-8.7 24.3.9 4.2 3.6 7.1 8 8.8l.6.2-.1 1c-.2 4 .4 7.7 2 10.9s4.9 5.5 8.9 6c1.9.2 3.8.1 5.7-.3 1-.2 1.9-.6 2.7-1 .4-.2.8-.3 1.2-.3.9 0 1.5.6 2 1.2.1.1.3.3.4.5l.2.2c.2.2.3.4.5.5.9.7 1.6 1.2 2.5 1.6 1.8.9 3.8 1.4 5.8 1.6 4.1.5 8.3-.4 11.6-2.5.8-.5 1.6-1.1 2.3-1.7 4.2-3.8 5.9-9.1 6.9-13.4.2-.9.4-1.9.6-2.8.6-3 1.3-6.1 2.4-9.1.1-.2.2-.6.5-.9.3-.3.6-.5 1-.7 3.4-1.6 6.4-1.5 9.6-1.2l.7.1.1.7.3 1.8c.6 3.8 1.2 7.4 3.3 10.9 2.3 3.8 5.8 6.7 9.9 8.1 3.2 1.1 7.6 1.3 11.4.6 3.3-.7 6.9-3.2 9.1-6.5 2.5-3.6 3.1-8.4 1.8-12.9-1.2-4-4.1-7.4-6.8-10.6l-.1-.1c-2.8-3.3-2.9-7.4-2.9-11.3 0-1.1 0-2.3-.1-3.5-.2-3.1-.7-6.7-1.9-10-1.3-3.3-3.7-7.7-8.3-10l-1.3-.6 1.1-.9c3.2-2.5 5.5-5.8 6.6-9.6 1.3-4.7.3-9.8-2.3-13.8-1.4-2.2-9.4-10.9-9.7-4-.1 3.1-.8 6.3-2.1 9.1-.2.5-.5 1.1-1 1.5-.5.4-1.1.5-1.6.6-4.5.8-9.2-.1-13.1-2.5-1-.6-2-1.4-2.7-2.4-1.7-2.5-1.1-5.9-.4-8.8.6-2.3 1.3-4.9.8-7.3 0-1.2-.7-1.7-1.6-2z"></path><path class="st2" d="M11 401.4c.7-1.5 1.2-3.2 1.9-4.5 1.4-2.7 2.6-5.6 3.9-8.4 1-2.1 2.1-3.9 3.5-5.8 1.7-2.3 3.8-4.9 6-6.7 1.4-1.1 2.4-1.8 2.6-3.6.2-1.8.2-3.8-.3-5.6-.4 1.5-.6 3-1.3 4.3-1 1.9-2.7 3.3-4.3 4.8-6.1 5.4-10.8 12.3-13.6 20-.4 1.1-1 2.5-2.2 2.6-1.5.1-2.4-1.8-3.8-2.1-.1 0 .4 3 .5 3.2.3 1 .7 1.9 1.3 2.8.3.5.7 1 1.2 1.3 1.2.7 2.8.2 3.7-.9.3-.2.7-.8.9-1.4zm75.7-67.2c1.3-.2 2.2-1.3 3.5-1.7 1.4-.5 3.1-.2 4.2.9.9.9 1.3 2.1 1.6 3.3 1 4.5-.2 9.4-3.1 13 2.9-3.1 5.7-6.2 6.9-10.4 1-3.9-.4-8.7-2.5-12-1.4-2.2-9.4-10.9-9.7-4-.1 3.5-.9 6.9-1.4 10.4 0 .2 0 .3.1.5h.4zm-39.5 7.1c2 3.1 4.7 5.9 7.5 8.3.3.2.6.5.9.4-3.3-3.8-5.1-8.7-5.9-13.7-.4-2.5-.5-5 0-7.4.5-2.4 1.7-4.8 3.7-6.3 1.6-1.3 4.6-2.5 6.7-1.4 1.8 1 3.6 2.8 5.1 4.3l.6.6c-.1-1.7.3-3.5.7-5.1.6-2.3 1.3-4.9.8-7.3-.2-1-.9-1.6-1.7-1.9-1.1-.4-2.4-.4-3.6-.3-4.7 0-9.2 2.1-12.5 5.4-3.2 3.2-5.2 7.6-5.6 12.2-.2 2.2 0 4.3.6 6.5.6 1.8 1.5 3.8 2.7 5.7zm-19.3 69.6c-.8-4.5-.6-8.8.5-13.6.5-2 1.1-4.1 2-6 .6-1.2 1.3-2.3 2.1-3.4 1.9-2.9 4.8-5.5 6.5-8.6 1.5-2.7.9-6-1.1-8.3.3 2 .5 4.3-.6 6-.4.6-.9 1.1-1.4 1.6-6 6.1-9.9 14.2-11.1 22.7-.7 5-.4 10.1-1.8 15-.1.5-.3 1-.7 1.4-.3.3-.6.5-1 .6-2.1.8-4.4.8-6.4-.1.6.2 1.6 2.5 2.4 3 1.1.9 2.3 1.1 3.7 1.2 1.9.1 5.5.5 7.1-.6 2.1-1.4 1.1-5.3.6-7.3-.3-1.1-.6-2.4-.8-3.6zm81.8.1c.3-.5.5-1.1.7-1.6-.4 1.5-7 1.7-8.2 1.6-2.8-.1-5.8-.9-8.4-1.9-4.9-2-8.8-6.6-10.3-11.6-.6-2-1-4.2-2.6-5.4-.7-.5-1.5-.8-2.3-1-5-1.5-10.4-1.6-15.4-.5-1.1.2-2.2.6-2.9 1.5-.6.7-.8 1.7-1 2.6-.9 6 .2 12.5-2.5 17.9-.9 1.9-2.3 3.5-3.8 5-4.1 4-9.3 6.9-14.9 8.1-.1 0 1.6 1.3 1.8 1.4.9.3 1.6.2 2.4 0 1.8-.3 3.4-1 5.3-1.2 2.9-.3 5.8-1 8-3 4.2-3.8 5.9-9.1 6.9-13.4.2-.9.4-1.9.6-2.8.6-3 1.3-6.1 2.4-9.1.1-.2.2-.6.5-.9.3-.3.6-.5 1-.7 3.4-1.6 6.4-1.5 9.6-1.2l.7.1.1.7.3 1.8c.6 3.8 1.2 7.4 3.3 10.9 2.3 3.8 5.8 6.7 9.9 8.1 3.2 1.1 7.6 1.3 11.4.6 2.9-.7 6-3.2 7.4-6z"></path><path class="st3" d="M113 217.9c1-3.7 2.1-7.5 3.1-11.2.7-2.6-1-5.9-2.2-1.9-2.1 6.8-3.9 13.8-5.8 20.7-1.3 4.6-2.5 9.3-3.7 14-2.3 9.1-4.5 18.3-6.6 27.5-5 21.9-9.8 43.8-13 66-3.7.6-7.6.6-11-.6-2.9-1-4.7-2.7-6.5-5.1-.2-.3-.4-.6-.5-1v-.8c1.4-9.5 3.9-18.9 6.3-28.2 2.5-9.3 4.6-18.6 6.8-27.9l2.4-10.2c2.7-11.3 5.9-22.7 9-33.9 3.2-11.5 7.1-23.1 9.2-34.9-.1.6-2.4.8-2.8 1.2-.9.8-.6 1.4-.8 2.4-.5 2.8-1.3 5.5-2.1 8.3-1.6 5.9-3.3 11.7-5 17.6-3.2 11.6-6.4 23.1-9.3 34.8-.3 1.3-.6 2.5-.9 3.8-4.4 17.5-8.5 35.1-12.5 52.7-6.4-2-13.5.3-18.1 4.9-3.4 3.4-5.5 8-5.9 12.8-.2 2.3 0 4.5.6 6.8.2.6 2.3 6.8 2.8 6.6-.6.3-1.3.6-1.9.9-2.1 1-4 2.3-5.7 3.7-3.6 3.1-5.5 7-8.7 10.4-3.3 3.5-7.9 4.7-12 7-3.3 1.9-6.3 4.3-8.9 7C1 380-6.4 400 8.9 405.9v.4c-.2 3.9.3 7.8 2.1 11.3 1.8 3.7 5.6 6 9.6 6.5 2 .3 4.1.1 6-.4 1-.2 1.9-.6 2.9-1 1.4-.6 1.6.2 2.6 1.2.3.3.5.6.8.8.9.7 1.6 1.3 2.6 1.7 1.9.9 4 1.5 6.1 1.7 4.2.5 8.6-.4 12.2-2.6.9-.5 1.7-1.1 2.4-1.8 4.1-3.6 5.9-8.6 7.1-13.9.9-4 1.5-7.9 3-11.8l.3-.6c.2-.2.4-.4.7-.5 3.1-1.5 5.8-1.5 9.1-1.2.8 4.6 1.2 8.9 3.7 13 2.4 4 6 7 10.4 8.5 3.6 1.2 8.2 1.3 11.9.6 3.9-.8 7.5-3.7 9.7-6.9 2.7-3.9 3.3-9.1 1.9-13.6-1.3-4.3-4.3-7.7-7.1-11.1-3.4-4-2.5-9.3-2.9-14.2-.3-3.5-.7-7-2-10.2-1.7-4.4-4.5-8.4-8.7-10.5 3.2-2.5 5.7-6 6.9-10.1 2.4-8.7-2.6-17.9-10.4-21.8h-.1c3.1-17.4 6.6-34.6 10.7-51.8 2.4-10.1 4.7-20.3 7.3-30.4 1.8-6.4 3.5-12.8 5.3-19.3zM97.7 340.5c-1.9 8.9-9.9 13-18.2 14-.6.1-.6.9 0 .9 4.1.4 8.2-.7 11.7-2.7 5 3 7.8 7.5 9.1 13.2 1.3 5.8.2 12 1.7 17.6 1.2 4.6 6.2 7.6 8.3 11.9 1.3 2.6 2.1 5.7 1.7 8.6-.4 3-1.4 4.7-3.6 6.8-4.6 4.2-11.1 5.2-17 3.2C83 411.2 78 403 79 394.3c.1-.8-.7-1.2-1.3-1.3-3.7-.4-9.8-.7-12.7 2.1-3.3 3.2-3.4 9.6-4.4 13.8-1.6 6.2-4.2 11.9-10.3 14.7-5.4 2.5-12.2 1.9-16.4-2.5-1.8-1.9-2.4-3.3-3.1-5.7-1.9-6.3-1-13.5.9-19.7 1.9-6.2 5.1-10.9 8.9-16.2 2.1-2.9 1-5-1.2-7.9-.3-.4-1-.1-.9.4.1 1.3.8 2.6.8 3.8.1 2-1.6 3.3-2.8 4.8-1.6 2-2.9 4.2-4.1 6.5-2.8 5.3-4.4 10.9-5.1 16.9-.6 5.3-.3 11 2 15.8-6.9 2.1-14.3 2.3-16.8-6.1-2-7-.3-14.3 2.7-20.7 2.7-5.8 7-10.6 11.3-15.3 1.2-1.3 3.6-3.1 4.2-4.8.5-1.6-.9-4.6-1.4-6.2-.1-.3-.6-.2-.6.1 0 2 .5 4.4-.7 6.1-1 1.5-3 2.9-4.2 4.2-2.4 2.6-4.8 5.4-6.9 8.3-3.8 5.3-6.7 10.9-7.7 17.2-7.6-4-7.7-13.5-4.4-20.7 1.7-3.7 4.1-7 7-9.9 1.4-1.5 3-2.8 4.6-4 1.8-1.3 3.6-2.3 5.6-3.4 2.6-1.4 5.2-2.8 7.7-4.3 1.8-1.1 2.8-2.7 4.1-4.4 2.2-2.8 4.1-5.6 6.7-8.1 2.1-2 4.5-3 7-4.3 3.4 4.7 8.4 8.4 14.2 9.8.5.1.9-.6.4-.9-5.8-3-11.4-7.2-14.4-13.1-3.2-6.3-2.8-14.6 1.5-20.2 3.1-4.1 8.7-6.5 13.8-6.1 1.2.1 2.3.4 3.3.6-.7 3.2-1.5 6.5-2.2 9.7-.4-.6-.7-1.3-1.1-2-.4-.7-1.4-.2-1.1.5 2 5.3 5.2 10.7 10.7 12.9 5.1 2.1 13.9 2 18-2.1.5-.5.2-1.7-.7-1.4-.8.2-1.6.5-2.4.7.6-3.4 1.2-6.7 1.8-10.1 6.5 3.9 10 11.4 8.4 18.7z"></path><path class="st1" d="M567.5 228.1c2.3 11.3-9.8 19.1-18.7 23.3-.3-1.2-.8-2.2-1.7-3.1-2.6-2.7-5.8-4.9-9.1-7 2.1-2.6 3.5-5.8 4.1-9.1.6-3.6 0-5.3-2.7-7.7-2-1.8-4-3.5-6-5.3.5-.4.9-.8 1.4-1.3 1-1 2.5-1.5 3.9-1.3 7.8 1 15.9.9 23.7-.5l.1.6c2.1 3.8 4.2 7.4 5 11.4z"></path><path class="st0" d="m466.4 265.6-.1.1c-11 2-22 5.8-34 3.7-10.2-1.7-19.2-8.4-25.4-16.7-8.7-11.8-10.9-27-12.1-41.6-1.4-16.8-1.7-37-1.2-53.8 4.5-.2 10.4-.4 14.9-.7-.8 14.8-.3 33.1 1.6 47.8 1.6 11.6 3.1 25.8 12 34.4 9.8 9.5 24.8 5.9 36.4 3h1.2c0 7 1.8 14.1 4.8 20.5.5 1.3 1.2 2.4 1.9 3.3z"></path><path class="st1" d="M539.5 224.6c2.7 2.4 3.3 4.1 2.7 7.7-.6 3.3-2 6.5-4.1 9.1-6.7-4.1-14.3-7.2-20.9-10.7h-.3c0-1.5.2-3.1.4-4.6l.4.1c6 0 11.4-3.1 15.8-6.9 2 1.8 4 3.5 6 5.3z"></path><path class="st1" d="m491.5 266.9-.8.1c-3.7 1.7-5.2 2.4-9.3 3.2-6.5 1.3-11.6 0-15.1-4.7-.7-1-1.4-2-2-3.3-3-6.4-4.8-13.5-4.8-20.5s1.6-14 5.2-20.1c1.1-1.9 2.5-3.8 4.4-4.9 3.7-2.2 8.4-1.2 12.6-.2l.7.4c1.2-2 2.7-3.9 4.6-5.4 10-8.1 21.9-14.9 33.9-20.4 3.3-1.5 6.8-2.1 10.4-1.9 13.2.9 26.6-.9 39.4-4.4 6.5-1.7 13.8-3.8 19.4.1 2.9 2 4.6 5.3 4.7 8.8.2 7-6 12.1-12 15.4-6.4 3.5-13.3 5.8-20.5 7-7.8 1.4-15.8 1.5-23.7.5-1.4-.2-2.9.3-3.9 1.3-.5.4-.9.9-1.4 1.3-4.4 3.9-9.8 6.9-15.8 6.9l-.4-.1c-.3 1.5-.4 3.1-.4 4.6h.3c6.6 3.5 14.2 6.6 20.9 10.7 3.3 2 6.5 4.3 9.1 7 .8.9 1.4 1.9 1.7 3.1 1.2 5.1-2.5 12.2-5.6 15.4-3.3 3.4-7.9 2.2-12.1 1.4-6.7-1.4-12.9 3.5-19.2 5.1-5.7 1.5-12 0-16.9-3.4-1.2-.9-2.4-1.9-3.4-3z"></path><path class="st2" d="M594.9 194.5c-11.3 9.3-26.4 14-41 12.8-6.7-.6-13.4-2.3-19.9-.8-5.2 1.2-9.9 4.7-12.8 9.2-3 4.9-7.2 10.4-2.4 15.6 1.8 2 4.5 2.6 7 3.4 5.1 1.6 10 3.9 14.4 6.9 2.9 1.9 5.7 4.4 6.7 7.7 1.2 3.9-.5 9.1-3.9 11.4-2.9 2-7 2.2-10.1.5-1.1-.6-2.1-1.5-3.3-1.7-1.8-.4-3.7.5-5.3 1.5-2.4 1.5-4.5 1.8-7.1 2.5-5.5 1.4-11.4 1.1-16.7-.9-8-3-14.4-9.8-17-17.9.1 3.6-2 7.2-5.1 9s-7.2 1.7-10.3-.2c-4.9-3-6.3-9.5-5.7-15.1s2.8-11.1 3.4-16.8c-.5 3.5-3.4 7.2-4.6 10.5-1.2 3.1-1.8 6.5-1.8 9.9 0 7 1.8 14.1 4.8 20.5.6 1.2 1.2 2.3 2 3.3 3.5 4.6 8.6 6 15.1 4.7 4-.8 5.5-1.6 9.3-3.2l.8-.1c1 1.1 2.2 2.1 3.6 3 4.9 3.4 11.2 4.9 16.9 3.4 6.3-1.6 12.5-6.5 19.2-5.1 4.2.9 8.8 2 12.1-1.4 3.1-3.1 6.8-10.3 5.6-15.4 1.5-.7 3.3-1.4 4.6-2.4.8-.6 1.4-2.2 2.3-2.6-2.3 1.1-5.2-.2-6.7-2.2s-2-4.6-2.5-7.1c-.9-5.3-1.5-11.3 1.7-15.7 2.1-2.9 5.5-4.5 8.9-5.2 4.4-.9 8.4-.2 12.6-1.7 4.5-1.6 8.9-3 13.1-5.3 2.3-1.3 5.4-2.7 7.2-4.7 2.7-3 4.5-7.8 6.5-11.4-.5.1-1 .6-1.6 1.1z"></path><path class="st3" d="M480.7 235.7c-2.5-4.4-3-10-1.5-15 .7-2.5 2-5 3.6-7.1l.6-.8.7-.7c.5-.5 1-.9 1.5-1.4 1-.9 2-1.6 3-2.3 8-6 16.6-11 25.6-15.3 2.2-1.1 4.5-2.1 6.8-3.1 2.4-1 5-1.6 7.5-1.8.7 0 1.3-.1 2-.1h1.9c1.2.1 2.4.1 3.7.1 2.4 0 4.9-.1 7.3-.3 4.9-.4 9.7-.9 14.5-1.7 4.8-.8 9.6-1.9 14.3-3.1 2.4-.6 4.9-1.2 7.4-1.4 2.5-.3 5.2-.2 7.8.6 1.3.4 2.5 1.1 3.6 1.8 1.1.8 2.1 1.8 2.9 2.9 1.6 2.2 2.5 5 2.3 7.8-.1 2.8-1.3 5.4-2.9 7.6-1.6 2.1-3.6 3.9-5.7 5.4-2.1 1.5-4.3 2.7-6.6 3.8-2.3 1.1-4.6 2.1-7 2.9-9.5 3.4-19.7 4.5-29.7 4-1.2-.1-2.5-.2-3.7-.3l-1.9-.2c-.3 0-.5-.1-.8 0-.2 0-.5 0-.7.1-.4.1-.9.3-1.2.5-.2.1-.3.2-.5.5l-.7.7c-.9.9-1.9 1.7-2.9 2.5-2 1.6-4.2 3-6.7 4-1.2.5-2.5.9-3.8 1.1-1.3.3-2.6.4-4 .4v-3c4.5-.1 8.9-2.1 12.7-4.8 1-.7 1.9-1.4 2.8-2.2l.7-.6c.2-.2.6-.5.9-.7.7-.4 1.4-.7 2.2-.9.4-.1.8-.1 1.2-.1.4 0 .8 0 1.1.1l1.8.2 3.6.3c9.7.5 19.5-.8 28.6-4 4.5-1.6 9-3.7 12.8-6.4 1.9-1.4 3.7-3 5-4.8 1.3-1.8 2.2-3.9 2.3-6 .2-2.1-.3-4.3-1.5-6.2-1.2-1.9-3-3.2-5.2-3.9-2.1-.7-4.5-.7-6.8-.4-2.3.3-4.7.9-7 1.5-9.5 2.8-19.4 4.8-29.4 5-2.5.1-5 0-7.5-.1-1.2-.1-2.5-.1-3.7-.2-.6 0-1.2-.1-1.8-.1h-1.8c-2.3.2-4.6.7-6.8 1.6-2.2 1-4.4 2.1-6.6 3.2-8.7 4.4-17.1 9.5-24.8 15.6-.9.7-1.9 1.5-2.8 2.3l-1.2 1.2-.2.6-.5.7c-1.4 1.8-2.5 3.8-3.2 6-1.6 4.3-1.9 9-1.6 14z"></path><path class="st3" d="M481.5 218.1c-1.8-.6-3.6-1.1-5.4-1.3-1.8-.2-3.6-.1-5.2.5-3.1 1.2-5 4.7-6.5 8.1-3 6.8-3.7 14.4-2.8 21.8.5 3.7 1.4 7.3 2.7 10.8l.5 1.3.6 1.3c.4.9.8 1.7 1.2 2.4.9 1.5 2 2.9 3.3 3.9 2.6 2.1 6.2 2.6 9.7 2.1 1.8-.2 3.7-.7 5.3-1.2 1.7-.5 3.4-1.4 5.2-2.1l1.2 2.7c-1.7.8-3.5 1.7-5.5 2.3-2 .7-3.8 1.1-5.9 1.4-2 .3-4.2.3-6.3-.1-1.1-.2-2.1-.5-3.1-1s-2-1-2.8-1.7c-1.7-1.3-3.1-3-4.1-4.8-.5-.9-1-1.8-1.3-2.7l-.6-1.4-.5-1.4c-1.4-3.7-2.4-7.6-2.9-11.5-1-7.9.1-16.1 3.6-23.3.4-.9.9-1.8 1.4-2.6.5-.9 1-1.7 1.7-2.5 1.2-1.6 2.9-3.2 4.9-3.9 2-.8 4.2-.9 6.2-.8 2 .1 4 .5 5.9.8l-.5 2.9z"></path><path class="st3" d="M486.6 254.9c.8 2.5 1.6 4.9 2.9 7 1.2 2.1 2.8 3.8 4.7 5.4 3.8 3 8.4 4.9 13.2 5 4.8.2 9.2-2.4 14.2-4.3 2.5-1 5.3-1.7 8.2-1.5.4 0 .7.1 1.1.1.4.1.7.1 1 .2l1.9.4c1.2.2 2.4.4 3.6.4 1.2 0 2.2-.2 3.1-.6 1-.4 1.7-1.1 2.5-2 1.5-1.8 2.7-4 3.6-6.3.8-2.2 1.4-4.7 1-6.8-.2-1-.7-1.9-1.3-2.6L545 248l-1.4-1.2c-3.9-3.1-8.3-5.6-12.9-8-4.6-2.3-9.3-4.4-13.9-6.9l1.4-2.6c4.5 2.4 9.2 4.5 13.9 6.9 4.7 2.4 9.3 4.9 13.4 8.3l1.5 1.3 1.5 1.4c1.1 1.1 1.9 2.6 2.2 4.1.6 3-.2 5.9-1.1 8.4-1 2.6-2.3 5-4.1 7.1-.9 1-2.1 2.2-3.5 2.8-1.4.6-3 .9-4.4.9-1.4 0-2.8-.2-4.1-.5l-1.9-.4c-.3-.1-.6-.1-.9-.1s-.5-.1-.8-.1c-2.3-.2-4.6.4-6.9 1.3-2.3.9-4.6 2-7.1 3s-5.3 1.7-8.1 1.7c-5.6.1-11.1-2.1-15.2-5.8-2.1-1.8-3.8-4.1-4.8-6.8-1.4-2.5-1.6-5.3-1.2-7.9z"></path><path class="st3" d="M548 250.2c3.3-1.6 6.5-3.4 9.4-5.5 1.5-1 2.8-2.2 4.1-3.4 1.3-1.2 2.4-2.6 3.3-4.1.2-.4.4-.8.6-1.1l.3-.6.2-.6c.1-.4.3-.8.4-1.2l.2-1.3c.1-.4 0-.9.1-1.3 0-.4.1-.9 0-1.3-.1-.9-.2-1.7-.5-2.6-.5-1.7-1.2-3.4-2-5s-1.8-3.2-2.9-4.7l2.6-1.5c1.6 3.4 3.5 6.8 4.4 10.6.5 1.9.7 4 .5 6-.2 2-.9 4-1.8 5.8-1.9 3.5-4.7 6.4-7.8 8.7-3.1 2.3-6.5 4.2-10 5.7l-1.1-2.6zm-30.7-14.3c-.9-1.9-1.3-4-1.4-6-.1-2.1.1-4.2.7-6.2s1.4-4 2.6-5.7c1.2-1.7 2.7-3.3 4.6-4.2-1.2 1.7-2.1 3.4-2.9 5.1-.8 1.8-1.4 3.6-1.9 5.4s-.9 3.7-1.1 5.7c-.3 1.8-.5 3.8-.6 5.9zm16.4-18.5c1.6 1.7 3.2 3.4 5 4.9.9.8 1.7 1.5 2.7 2.4.9.9 1.8 2 2.2 3.4.4 1.4.4 2.8.2 4-.1 1.2-.4 2.5-.8 3.7-.8 2.4-2 4.6-3.6 6.5l-2.3-1.9c1.3-1.7 2.3-3.6 3.1-5.6.7-2 1.3-4.3 1.1-6.1-.2-.9-.6-1.7-1.3-2.5-.7-.8-1.6-1.5-2.5-2.3-1.8-1.5-3.6-3-5.5-4.3l1.7-2.2zm-74.9 25.9c-5 1.3-10 2.6-15.3 3.1-2.6.2-5.3.3-8 .1-2.7-.2-5.4-.9-7.9-2s-4.8-2.8-6.8-4.7c-1.9-1.9-3.5-4.2-4.8-6.5-2.6-4.7-4.1-9.8-5.2-14.9-1-5.1-1.7-10.2-2.3-15.3-.7-5.1-1.1-10.3-1.3-15.4-.5-10.3-.6-20.6-.1-30.9l3 .2c-.6 10.2-.5 20.4 0 30.6.3 5.1.7 10.2 1.4 15.2.7 5.1 1.3 10.2 2.3 15.1 1 4.9 2.5 9.8 4.9 14 1.2 2.1 2.7 4.1 4.4 5.8 1.7 1.6 3.7 3 5.9 3.9 4.4 1.8 9.4 2.1 14.3 1.7 5-.4 9.9-1.5 14.9-2.6l.6 2.6z"></path><path class="st3" d="M466.5 267.2c-6.6 1.3-13.2 3.2-20.1 4.1-6.9 1-14.2.6-20.9-2-13.3-5.3-23.1-17.1-27.3-30.4-2.2-6.6-3.4-13.4-4.2-20.2-.8-6.8-1.2-13.6-1.6-20.4-.7-13.6-.8-27.3-.4-40.9l3 .1c-.4 13.6-.3 27.1.4 40.7.3 6.8.8 13.5 1.6 20.2.8 6.7 2 13.3 4.1 19.6 2.1 6.3 5.3 12.2 9.7 17.1 4.3 4.9 9.8 8.9 16 11.1 3 1.1 6.2 1.7 9.5 2 3.3.2 6.5.1 9.8-.3 6.6-.8 13.2-2.6 20-3.7l.4 3z"></path><path class="st0" d="M256.2 487.2c10.8 6.6 24.8 9.7 37.2 12.4l2.8.6c14.1 3.1 28.1 5.1 41.7 5.7h.4c7.2.4 14.7.7 22-.1 1.7-.2 3.4-.3 5-.4 4.9-.3 10-.7 14.3-3 6.3-2.5 12.2-8.7 14.9-15.3 4-9.7 1.9-21.6-5.1-29.6-17.9-20.4-54.9-13.3-65.8-10.7-7.4 1.8-14.2 4.1-20.2 6.9l-2.5 1.2 1.4-2.4c1.7-3 2.4-6.6 1.8-9.8-.6-3.4-2.7-6.4-5.9-8.5-1.4-1-3.1-1.8-4.9-2.5-1.7-.6-1.8-1.2-1.6-2.7 0-.3.1-.6.1-1s.1-.7.1-1.1l.3-3.3.1-1c.5-5 1-9.9 1.6-14.6.3-2.6.7-5.2 1-7.8.4-2.8.8-5.8 1.1-8.7.4-3.4.9-6.9 1.4-10.3l.4-3c.1-.5.2-1.2.4-1.9.3-1.5.8-3.3.5-4.2-.1-.2-.5-1-3.4-2-3.7-1.3-7.9-.5-11.6.1-2.2.4-3.1.9-3.4 2.5-.3 1.6-.6 3.2-.8 4.8l-.1.9c-.2 1.2-.4 2.5-.6 3.7-.3 1.9-.6 3.8-1 5.7-.5 2.8-1 5.7-1.4 8.5-.5 3.1-1 6.3-1.5 9.4l-.2 1.1-2.1 11.4c-.6 3.1-1.1 6.4-1.6 10.3 0 .1-.1.4-.2.6-.4.9-1.6.9-2.6 1h-.5c-1.1.2-2 .4-2.8.6-1.9.5-3.6 1.3-5.1 2.4-4 2.8-6.7 6.9-7.3 11.3-.3 2.2 0 4.6 1 7 .2.5 2.7 3.9 3.7 5.2l1-.1-4.6 11.1c-1.1 2.7-2.3 5.5-2.7 8.3-.7 4.9 1.2 8.8 5.3 11.3z"></path><path class="st1" d="M256.2 487.2c10.8 6.6 24.8 9.7 37.2 12.4l2.8.6c14.1 3.1 28.1 5.1 41.7 5.7h.4c7.2.4 14.7.7 22-.1 1.7-.2 3.4-.3 5-.4 4.9-.3 10-.7 14.3-3 6.3-2.5 12.2-8.7 14.9-15.3 4-9.7 1.9-21.6-5.1-29.6-17.9-20.4-54.9-13.3-65.8-10.7-7.4 1.8-14.2 4.1-20.2 6.9l-2.5 1.2 1.4-2.4c1.7-3 2.4-6.6 1.8-9.8-.9-4.7-4.8-8.7-9.2-10.3-6.2-2.2-4.1 5.1-4.5 8.9-.1.7-.2 1.4-.6 2-.4.6-1 .9-1.7 1.2-5.1 2.4-11.6 1.7-16.1-1.9-.7-.6-1.4-1.3-1.7-2.1-.2-.8 0-1.7.2-2.5l.9-3.9c.2-1 .5-2 .1-3-.6-1.7-2-1-3.2-1h-.5c-1.1.2-2 .4-2.8.6-1.9.5-3.6 1.3-5.1 2.4-4 2.8-6.7 6.9-7.3 11.3-.3 2.2 0 4.6 1 7 .2.5 2.7 3.9 3.7 5.2l1-.1-4.6 11.1c-1.1 2.7-2.3 5.5-2.7 8.3-.7 4.9 1.1 8.9 5.2 11.3z"></path><path class="st2" d="M268.3 464.7c2.2-1.1 5.1 0 6.4-2.1-1.9-1.4-4.3-1.8-6.6-2.4-6.4-1.7-10.2-8-7-14.1 1.1-2.2 3.3-3.9 5.7-4.1 1-.1 2 0 3.1.2s2.3.3 3.4.5c-1.7-1.1-3.6-3.6-3.6-5.7 0-1.8 2.3-3.4 1.9-5.2-.6-2.9-4.6-1.3-6.5-.8-1.9.5-3.6 1.3-5.1 2.4-4 2.8-6.7 6.9-7.3 11.3-.3 2.2 0 4.6 1 7 .2.5 2.7 3.9 3.7 5.2l1-.1-4.6 11.1c-1.1 2.7-2.3 5.5-2.7 8.3-.6 4.7 1.2 8.6 5.2 11.1 10.8 6.6 24.8 9.7 37.2 12.4l2.8.6c14.1 3.1 28.1 5.1 41.7 5.7h.4c7.2.4 14.7.7 22-.1 1.7-.2 3.4-.3 5-.4 4.9-.3 10-.7 14.3-3 9.8-5.1 16.7-15.4 15-27 .8 5.1-8.8 12.7-12.4 14.9-5.7 3.4-11.8 4.6-18.2 4.7-9.7.2-19 .8-28.7-.1s-19.4-2.5-29-4.1c-12.5-2.1-25.2-4.2-36.5-9.8-1.5-.7-3.1-1.6-3.9-3.1-.9-1.6-.8-3.6-.7-5.4.1-2.1.3-4.4 1.4-6.2.3-1 .9-1.5 1.6-1.7z"></path><path class="st3" d="M390.1 457c-15.5-17.6-46-16-66.6-11-6.9 1.7-13.8 3.9-20.4 6.9 1.8-3.1 2.5-6.9 1.9-10.4-.7-3.8-3.1-7-6.3-9.1-1.6-1.1-3.3-1.9-5.1-2.6-1.2-.5-1.1-.6-1-1.9.1-.7.2-1.4.2-2 .1-1.4.3-2.9.4-4.3.5-4.9 1-9.7 1.6-14.6.7-5.5 1.5-11 2.2-16.4.8-6.8 2-13.7 2.8-20.5-1-.1-2.1.1-3.2 0-.7 6.1-1.4 12.2-2 18.3-.6 5.9-1.7 11.8-2.4 17.8-.6 4.4-1.1 8.8-1.6 13.2-.8 7.5-1.6 14.9-2.2 22.4v.5c-1 .4-2.1.7-3.2.9-3.6.6-7.1.5-10.5-1.2-1.2-.6-2.3-1.3-3.3-2.2.1-.2.2-.4.2-.6 1.7-11.6 3.5-23.1 5.4-34.6 1.2-5.9 2-11.8 3-17.8.9-5.6 2.3-11.3 3.2-17 .1-.5-3-.5-3.2-.5-.2 0-2.8 15.8-3.1 17.4-1.1 6-1.8 12-2.9 17.9-.8 4.2-1.5 8.3-2.3 12.5-.6 3.5-1.1 6.9-1.6 10.4 0 .1 0 .2-.1.3-.3.5-1.9.5-2.5.6-1 .2-1.9.4-2.9.6-1.9.5-3.7 1.4-5.3 2.5-3.9 2.8-6.9 7-7.7 11.9-.4 2.5.1 5.1 1.1 7.5.3.6 4.1 5.8 4.1 5.8-1.3 3.3-2.7 6.5-4.1 9.8-1.1 2.8-2.3 5.6-2.7 8.6-.7 5.1 1.3 9.3 5.7 12 11.8 7.2 27 10.2 40.3 13.1 13.8 3 27.8 5 41.8 5.8 7.3.4 15 .8 22.5-.1 6.6-.8 13.7-.3 19.7-3.5 6.9-2.8 12.7-9.4 15.4-15.8 4.1-10.2 2-22.3-5.3-30.6zm-2.7 36c-7.8 8.7-19.4 9.9-30.3 10.1-6.1.1-12.3.1-18.4-.1-12.4-.5-24.7-1.8-36.9-4.1-11.8-2.2-23.3-5.6-34.6-9.5-2.9-1-5.8-2-8.5-3.4-2-1-4.2-2.4-5.2-4.5-1.3-2.8.6-7.6 1.5-10.3 1.2-3.7 2.7-7.7 4.6-11.1 1.8.6 3.5 1.8 5.5 2.3 2.1.5 4.3.5 6.4-.1.3-.1.3-.5 0-.6-8.6-1.3-16.9-5.9-16.4-15.8.2-3.9 2.3-7.6 5.2-10.1 2.8-2.4 5.7-3.1 9-3.4l-.9 5.4c-.3-.3-.7-.6-.9-.4-.8.5.3 2.5.6 3 2.3 3.5 6.3 5.7 10.3 6.4 6.5 1.1 12.5-.7 16.3-6.2.4-.6-.5-1.4-1-.8-.6.6-1.3 1.2-2 1.8.1-2.4.1-5 .5-7.3 1.4.3 2.6.5 3.9 1.3 1.3.8 2.5 1.8 3.5 3 2.8 3.6 3.1 8.4 1.4 12.5-.8 1.8-1.9 3.3-3.2 4.7-1.7.9-3.3 1.9-4.9 2.9-2.7 1.8-5.4 3.8-7.8 6-.2.2 0 .4.2.3 6.2-3.2 12.1-6.9 18.5-9.7 6.8-2.9 13.9-5.1 21.1-6.6 13.3-2.8 27.9-3.6 41.2-.7 13.4 2.9 26.1 10.8 27.5 25.6.7 7-1.5 14.1-6.2 19.4z"></path><path class="st0" d="M240.3 442.9c-2-4-5.9-7-10.4-8l-.8-.2.1-.8c1.1-8.9 2-17.1 2.8-25.1 1-10.1 2.1-23.5 2.9-37-.3 0-.5 0-.7-.1h-.4l-.2-.4c-1.2-1.7-4.1-1.6-6.7-1.4-.8.1-1.7.1-2.7 0-2.9 0-6.2-.1-7.7 2l-.3.4h-.5c-.1 0-.3 0-.3.1-1 3.7-1.3 7.8-1.6 11.7l-.3 3.9c-.5 6-1.2 12.1-1.8 18.2-.8 7.5-1.9 15.7-3.4 25.9l-.1.7h-.7c-5 .4-12.3 2.5-16.5 7.5-2.2 2.6-3.1 5.7-2.8 9 .4 3.6 1.9 6.5 4.5 8.7l4.5 3.8-5.4-2.2c-7.7-3.2-15.4-5.7-22.8-7.6-8.3-2-16.5-3.1-24.3-3.1-7.2 0-14.2.9-20.6 2.6-8.6 2.3-23.8 8.4-29.9 22.8-2.7 6.3-2.7 13.9-.1 19.8 2 4.5 5.4 7.6 9.8 9.2h.3l.1.1c2 1.1 4.2 1.9 6.1 2.6 5.3 2 11.1 3.4 16.9 4.1 12.1 1.5 25.3 1.6 39.1.4 13.5-1.2 26.3-3.7 37.8-7.4 6.4-2.1 12.2-4.4 17.7-7.1 4.6-2.3 9.9-4.8 12.8-9.2 1.2-2 1-5.3.9-7.7l-.2-3.1c-.3-4.5-.5-9.1-1.2-13.6-.1-.4-.1-.9 0-1.5.2-.7.9-1 1.5-1.3.1-.1.3-.1.4-.2.6-.4 1.2-1 1.7-1.5 1.1-1.2 2.1-2.5 2.8-4 1.5-3.7 1.4-7.6-.3-11z"></path><path class="st1" d="M240.3 442.9c-1.3-2.6-8-10.2-11.5-7.1-1.1 1-.8 2.7-.7 4.2.2 2-.2 4.2-1.7 5.6-.7.7-1.7 1.2-2.7 1.6-4.8 1.9-10.5 1.3-14.9-1.4-.4-.2-.8-.5-1.1-1-.3-.5-.2-1.1-.1-1.7.4-3 1.2-6.1.5-9.1-.1-.6-.3-1.2-.8-1.5-1-.6-6.8 1.7-8.1 2.1-3.2 1.2-6.3 3.1-8.5 5.7s-3.1 5.7-2.8 9c.4 3.6 1.9 6.5 4.5 8.7l4.5 3.8-5.4-2.2c-7.7-3.2-15.4-5.7-22.8-7.6-8.3-2-16.5-3.1-24.3-3.1-7.2 0-14.2.9-20.6 2.6-8.6 2.3-23.8 8.4-29.9 22.8-2.7 6.3-2.7 13.9-.1 19.8 2 4.5 5.4 7.6 9.8 9.2h.3l.1.1c2 1.1 4.2 1.9 6.1 2.6 5.3 2 11.1 3.4 16.9 4.1 12.1 1.5 25.3 1.6 39.1.4 13.5-1.2 26.3-3.7 37.8-7.4 6.4-2.1 12.2-4.4 17.7-7.1 4.6-2.3 9.9-4.8 12.8-9.2 1.2-2 1-5.3.9-7.7l-.2-3.1c-.3-4.5-.5-9.1-1.2-13.6-.1-.4-.1-.9 0-1.5.2-.7.9-1 1.5-1.3.1-.1.3-.1.4-.2.6-.4 1.2-1 1.7-1.5 1.1-1.2 2.1-2.5 2.8-4 1.7-3.7 1.7-7.6 0-11z"></path><path class="st2" d="M195.7 437.4c1.2-.7 2.6-1.1 4-1.1s2.8.7 3.6 1.8c.6.8 1 1.9 1.5 2.7.5.9 1.3 1.7 2.2 2.2 1-3.1 1.9-5.9 1.1-9.1-.1-.6-.3-1.2-.8-1.5-1-.6-6.8 1.7-8.1 2.1-1.3.6-2.1 2.1-3.5 2.9z"></path><path class="st2" d="M103.7 503.2h.3l.1.1c2 1.1 4.2 1.9 6.1 2.6 5.3 2 11.1 3.4 16.9 4.1 12.1 1.5 25.3 1.6 39.1.4 13.5-1.2 26.3-3.7 37.8-7.4 6.4-2.1 12.2-4.4 17.7-7.1 4.6-2.3 9.9-4.8 12.8-9.2 1.2-2 1-5.3.9-7.7l-.2-3.1c-.3-4.5-.5-9.1-1.2-13.6-.1-.4-.1-.9 0-1.5.2-.7.9-1 1.5-1.3.1-.1.3-.1.4-.2.6-.4 1.2-1 1.7-1.5 1.1-1.2 2.1-2.5 2.8-4 1.6-3.5 1.6-7.4-.1-10.8-1.3-2.6-8-10.2-11.5-7.1-1.4 1.2-.6 3.5-.6 5.1 0 1.9-.1 3.5.5 5.3 1.2-.8 2.3-2 3.7-2.4 4.2-1.1 7.4 1.4 7.3 5.6-.1 4.9-3.4 8.3-6.9 11.2-3.8 3.1-10.4 2.3-14.9 2.9.1 2.2 3.4 2.5 4.7 4.3.6.8.6 1.9.7 2.8.3 4.7.2 9.6-2.2 13.6-4.4 7.2-16.2 11.1-23.8 13.4-18.5 5.4-37.9 7.8-57.1 6.9-10-.5-20.2-1.8-29-6.5S95.1 484.9 94.1 475c.6 5.5-1.5 11.1-.8 16.6.6 5.2 5.5 9.9 10.4 11.6z"></path><path class="st3" d="M230.1 434c1-8.4 2-16.7 2.8-25.1 1.2-12.4 2.2-24.9 2.9-37.3 0-.2 0-.4-.1-.5-.1-.1-.2-.1-.4-.1-.8-.1-1.6-.2-2.4-.1-.3 0-1 16.8-1.1 17.9-.4 6.1-1 12.3-1.5 18.4a811.8 811.8 0 0 1-4.5 38.2c-2.6.7-5.2 1.1-8 1-3.5-.2-6.3-1.2-8.8-2.7 1.6-11.6 2.9-23.3 4.2-34.9.7-5.8 1.3-11.5 1.8-17.3.6-6.4 1.2-12.7 1.8-19 0-.2 0-.3-.1-.5-.4-.6-2-.6-2.3.2-1.4 5.1-1.5 10.6-2 15.8-.6 6.1-1.2 12.1-1.8 18.2-1 8.6-2.1 17.2-3.4 25.8-9.3.6-21.3 6.7-20.1 17.5.5 4.1 2.3 7.1 4.8 9.3-7.4-3.1-15.1-5.7-22.9-7.6-14.8-3.6-30.6-4.5-45.4-.5-12.7 3.4-25.2 10.7-30.5 23.3-4.5 10.7-2 25.9 10.2 30.2.1 0 .2 0 .3.1 2.1 1.1 4.3 2 6.2 2.7 5.5 2 11.3 3.4 17.1 4.1 13 1.6 26.3 1.5 39.3.4 12.9-1.1 25.7-3.5 38-7.5 6.1-2 12-4.3 17.8-7.1 4.7-2.3 10.2-5 13.1-9.5v-.1c1.5-2.4 1.1-6.2.9-8.8-.3-5.4-.6-10.8-1.4-16.2 0-.3-.1-.7 0-1 .2-.5 1.1-.8 1.5-1.1.7-.5 1.3-1.1 1.9-1.6 1.2-1.2 2.2-2.7 3-4.3 4.4-9.2-2.1-18.4-10.9-20.3zm7.5 20.8c-4.8 6.9-13.4 7.7-21 8.3-.1 0-.1.1 0 .2 5 1 10.8.9 15.6-1-.5 4.1.4 8.5.6 12.5.1 2.3.4 4.7.3 7 0 1.3-.5 2.5-.8 3.7-8.8 8.2-20.3 12.8-31.7 16.2-11.6 3.5-23.7 5.5-35.8 6.3-11.6.8-23.3.7-34.8-.4-5.5-.5-11.2-1.1-16.6-2.7-3.8-1.2-7.4-3.4-11.1-5-9.7-8.7-9.7-22.5-.8-32.5 8.3-9.4 21.5-14.1 33.6-15.6 12.7-1.6 25.7.2 38 3.5 6.2 1.7 12.4 3.8 18.4 6.3 5.7 2.4 12.3 4.8 17.2 8.5.1.1.3-.1.1-.2-3.4-3.2-6.6-5.8-10.3-8 3.3.9 7 1 10.5.5.5-.1.4-.9-.1-.8-8.2.6-18-3.3-19-12.6-1-9.4 9.4-13.2 17-14.7-.4 2.4-.7 4.7-1.1 7.1l-1.5-1.2c-.3-.2-.8 0-.6.3.5 1.3 1.2 2.4 2.2 3.5.1.2.3.4.5.5 2.4 2.3 5.9 3.8 9.2 4.4 2 .3 4 .3 6 .1 3.8-.4 8.1-1.2 10.4-4.7.1-.2 0-.5-.3-.5-1.2 0-2 .2-3 .5.4-.1.4-2.6.5-2.9.1-1.5.2-3.1.4-4.6 8 1 12.6 11.4 8 18z"></path><path d="M169.5 333.7c-4.3-62.9-18-139.2-25.6-177.8l109.5-96.2 122.9 99.7 65.3-7.1L247.8 1.8 22.2 200.1l34.4 32.6 50.6-44.5c8.5 46.6 19.9 117.5 21.4 169.6l.7 23.4 23.2-3.2c1.3-.2 129.1-17.4 226.5.9l7.8-41.4c-79.7-14.9-174.5-8.2-217.3-3.8z" style="fill: rgb(162, 180, 192);"></path><path d="M169.5 333.7c-4.3-62.9-18-139.2-25.6-177.8l109.5-96.2 122.9 99.7 65.3-7.1L247.8 1.8 22.2 200.1l34.4 32.6 50.6-44.5c8.5 46.6 19.9 117.5 21.4 169.6l.7 23.4 23.2-3.2c1.3-.2 129.1-17.4 226.5.9l7.8-41.4c-79.7-14.9-174.5-8.2-217.3-3.8z" style="fill: none; stroke: rgb(5, 10, 30); stroke-width: 3.58; stroke-linejoin: round;"></path><path class="st3" d="M211.9 55.6c.5 1.1.9 2.3 1.1 3.6.8 3.9.2 8-1.6 11.5-3.1 5.8-9.7 6.8-15.4 8.9-12.4 4.6-25 8.5-37.8 11.6-6.3 1.5-10.8-.7-11.4-7.5-1-11.6 5-23.3 14.5-29.6 11.8-7.7 26.9-9.4 40.5-6.6 4.9 1.1 8.3 3.9 10.1 8.1zm136.2 14.9c-1.7.7-3.6.8-5.5 1-11.4.7-22.8 1.3-34.2 2-5.1.3-10.6.5-15-2.2-2.5-1.5-4.3-3.9-5.6-6.4-1.2-2.4-2-5-2-7.7.2-6.4 5.3-11.6 10.6-15.2 10.1-6.9 20.5-6.4 32-3.5 9.6 2.4 26.9 7.4 27 20.3 0 4.1-3.4 10-7.3 11.7z"></path><path class="st2" d="M320.5 203.7c-5.4-.7-10.7-1.3-16.1-1.8-20-1.8-40.1-2.2-60.2-1.2-18.5.9-37 .5-54.7-6.5-.8-.3-1.8-.8-2-1.8-.1-.7.1-1.4.5-2 1.6-3 4.2-5.4 7.2-6.5-14.7-2-30 3-41.5 13.4 4.6-.7 9.5-1.4 13.9.1 14.8 5.2 25.6 16.1 35.1 29.6 4.7 6.8 9.2 13.9 15 19.5 5.7 5.4 12.5 9.1 19.5 11.9 13.1 5.2 27 7.5 40.9 7.1 13.2-.3 26.9-2 38.6-9.2 2.4-1.5 5-3.7 5-6.8 0-2.8-.8-4.7.2-7.4 1.1-2.8 2.9-5.7 4.3-8.3 4.2-7.9 7.4-15.9 14.7-21 6.5-4.5 15-5.8 22-2.2-1.9-4.7-5.7-8.1-9.8-10.4s-8.6-3.4-13-4.6c1.5 1.1 1.7 3.6.9 5.3-.8 1.7-2.5 2.8-4.1 3.3-3.5 1.2-7.3.6-10.9.1-1.8-.1-3.7-.3-5.5-.6z"></path><path d="M304.5 209.6c-6.7-.3-13.4-.7-20.1-1-15.2-.8-30.5-1.5-45.7-2.3-7.6-.4-15.2-.8-22.9-1.1-3.5-.2-7-.4-10.5-.7-2.2-.2-7.7-.1-9.1-2.3 4.3 6.6 8.7 13.1 12.3 20 1.7 3.3 4.9 6.3 7.2 9.2s5 5.9 7.8 8.7c7.9 8.1 17.2 15.2 28 18.8 19 6.3 41.4 3.4 59.7-4.3 1.7-.7 3.5-1.5 4.8-2.8 2.4-2.4 1.8-5.4 2.6-8.4.9-3.3 2.2-6.5 3.2-9.7 2.4-7.6 4.7-15.2 7.1-22.8-8.1-.5-16.2-.9-24.4-1.3z" style="fill: rgb(119, 55, 55);"></path><path class="st3" d="M291.6 235.5c-.1-.7-.2-1.4-.4-2.1-.3-2-2.3-24.9-1.4-24.8-17-.8-34.1-1.4-51.2-2.3-7.6-.4-15.2-.8-22.9-1.1-3.5-.2-7-.4-10.5-.7-2.2-.2-7.7-.1-9.1-2.3 4.3 6.6 8.7 13.1 12.3 20 1.7 3.3 4.9 6.3 7.2 9.2 2.5 3 5 5.9 7.8 8.7 7.9 8.1 17.2 15.2 28 18.8 7.9 2.6 16.4 3.6 24.7 3.4 4.2-.1 19.4.3 20.8-4.8.8-2.9-2.3-8.5-3.1-11.3-.8-3.6-1.6-7.1-2.2-10.7z"></path><path d="M291.8 240.1c-5.7-2.4-11.9-3.8-18.1-4.1-14.4-.7-28.9 4.5-39.5 14.3 5.2 3.4 11.3 6.6 17.2 8.6 12.1 4 25.3 4.2 37.9 2.1 6.4-1.1 12.4-3 18.5-5 2.1-.7 4.8-.4 2.8-2.8-1.8-2.2-4.2-4.1-6.5-5.9-3.7-2.9-7.9-5.3-12.3-7.2z" style="fill: rgb(255, 131, 131);"></path><path d="M293.3 255.8c-5.2.9-10.5 1.1-15.8.4-10.6-1.3-21.1-6.7-26.9-15.7-.1-.1-6.4 3.1-6.8 3.3-.9.5-9.7 6.3-9.6 6.4 5.2 3.4 11.3 6.6 17.2 8.6 12.1 4 25.3 4.2 37.9 2.1 3.5-.6 6.9-1.5 10.3-2.5 3.9-1.1 8.1-1.8 11.9-3.1-.7-1.3-1.8-2.5-2.5-3.8-5 1.9-10.3 3.4-15.7 4.3z" style="opacity: 0.5; fill: rgb(255, 131, 131);"></path><path class="st1" d="M304.5 209.6c-6.7-.3-13.4-.7-20.1-1-15.2-.8-30.5-1.5-45.7-2.3-7.6-.4-15.2-.8-22.9-1.1-2.4-.1-4.7.2-7 0 2.8 5.4 6.5 10.4 9.7 15.5 1.1 1.8 2.3 3.6 4.2 4.5 1.3.6 2.8.6 4.2.6l88.7 1.2c2.9-5.2 6.1-10.4 8.6-15.7-2.5-1.4-6.2-.9-9.1-1.1-3.4-.2-7-.4-10.6-.6z"></path><path class="st3" d="M344.3 200.1c.9.9 1.6 2 2 3.2-2.6 1.1-4.6 3-7.4 3.8-2.9.9-6 .9-9 .9-7.3-.2-14.6 0-21.9-.3-14.3-.6-28.5-1.7-42.8-2.1-13.3-.3-26.6.1-39.9-.8-6-.4-11.9-1.5-17.8-2.9-4.8-1.1-10.2-1.5-14.7-4-2.5-1.4-4.8-3.4-7-5.4-.5-.4-.9-.9-1.1-1.5s.2-1.5.8-1.4c-1.8-1.4-4.2-1.3-6.3-.7-3.4.9-6.5 2.6-9.2 5.1 2.6.5 5.3-.4 8-.2 4.1.2 7.7 2.9 11.1 5.6 9.6 7.7 15.1 20.1 22.6 30.3 6 8.2 12.6 15.8 20.3 21.8 8.1 6.2 17.6 9.4 27 11.1 10.4 1.8 20.9 1.9 31.2.6 9.8-1.2 19.4-4 27.5-10.7.5-.4 1-.9 1.2-1.5.2-.7 0-1.4-.5-1.8 1-2.1 1.5-5 2.3-7.3 1-2.8 2.1-5.6 3.2-8.4 2.2-5.5 4.7-11 7.3-16.3.8-1.6 1.6-3.2 2.7-4.4 2.7-2.9 7.6-3.2 10.9-4.9 2.7-1.4 5.3-2.8 8.4-2.4.9.1 1.8.4 2.7.8.5.2 1 .5 1.4.7-3.3-4.1-8.1-6.6-13-6.9zm-26.9 43.2c-.6 2.3-1.1 4.6-1.5 6.9 0 0-2.6 2.1-2.8 2.2-4.8 2.4-9.6 4.9-14.7 6-12 2.5-22.5 3.3-34.7 1.4-11.1-1.7-20.2-4-29.5-11.7-8.9-7.4-15.9-16.8-22.6-26.3-4.1-5.8-8.2-11.5-12.2-17.4 10.6 2.6 21.7 4.3 32.5 4.4 15.4.3 30.1-.4 45.5.2 8.4.4 16.8 1 25.2 1.6 2.1.1 23.7 2.2 23.8 1.5-1.9 10.8-6.2 20.7-9 31.2z"></path><path d="M296.1 279.6c-6.3 1.4-13.3 2.5-20.4 1.9-7.9-.7-14.5-3.4-21.3-6.4-.2-.1-.4 0-.3.2 4.8 4.7 13.8 7.4 21.9 8.2 7.9.7 15.2-.2 20.4-3.5.3-.2 0-.5-.3-.4z" style="opacity: 0.6; fill: rgb(5, 10, 30);"></path><path class="st3" d="M310.7 255.4c-1-1.4-2-2.8-3.2-4.1-1.2-1.3-2.5-2.5-3.9-3.6-2.7-2.2-5.9-3.9-9.1-5.3-6.5-2.7-13.6-4.2-20.7-4.5-3.5-.1-7.1-.1-10.6.4s-6.9 1.3-10.2 2.5c-6.6 2.3-12.7 6.2-17.5 11.3l-1.8-1.6c5-5.5 11.5-9.6 18.5-12 3.5-1.2 7.1-2.1 10.8-2.5 3.7-.5 7.4-.4 11-.2 7.3.5 14.5 2.1 21.3 5 3.4 1.4 6.7 3.2 9.6 5.4 3 2.2 5.6 4.9 7.9 7.9l-2.1 1.3z"></path><path d="m324.9 210.6-7.8 13.9c-1 1.8-3 3.1-5.1 2.9-11.5-1.4-51.3-2.7-85.8-.7-2 .1-3.8-.9-4.9-2.5l-13.1-19.7" style="fill: none; stroke: rgb(5, 10, 30); stroke-width: 2.4; stroke-miterlimit: 10;"></path><path class="st1" d="M250.8 117.5c-3.3-6.2-7.5-10.6-13.3-14.1-5.6-3.3-12-5.3-18.3-5.6-8.8-.5-17.8 1.9-25.2 6.9-6.6 4.4-11.5 11.7-13.8 20.6-.2.6-.3 1.2-.4 1.8-1 4.6-1.4 9.7-.9 14.7.4 4.8 1.7 9.8 3.7 14.1.2.5.5 1 .9 1.3.6.5 1.4.5 2.1.6.6.1 1.3.1 2 .2 6.5.8 12.8 2.9 18.9 5.3 1.3.5 2.6 1 3.9 1.4 1.8.6 3 2.1 4.9 2.4 2.1.3 4 .8 5.9 1.9 2.8 1.7 5 4.5 8.2 5.3.9.2 1.5-.2 2.4-.3 1-.1 1.7-.2 2.6-.7 2.7-1.2 5.2-2.6 7.5-4.2 3.8-2.6 6.7-5.7 8.8-9.1 2.6-4.2 4.5-9.1 5.4-14.3 1.4-8.6-.5-19.2-5.3-28.2z"></path><path class="st2" d="M250.8 117.5c-3.3-6.2-7.5-10.6-13.3-14.1-5.6-3.3-12-5.3-18.3-5.6-8.8-.5-17.8 1.9-25.2 6.9-5.8 3.9-10.5 8.4-13 15.1-2 5.5-2.6 11.4-2.7 17.2 0 4.5.2 9.2 1.8 13.4.2-8.5.4-17.2 3.6-25.1 2.6-6.3 6.6-12.2 12.1-16.4 8.3-6.4 19.3-8.9 29.5-6.2 6.2 1.7 12.1 5 16.7 9.5 10.2 9.9 14.6 25.2 12.4 39.3 2.7-11.5 2-23.4-3.6-34z"></path><path class="st3" d="M229.6 173.5c-2.3-1.7-4.6-3.3-7-4.8-5.3-3.2-11.1-5.7-17-7.6-5.2-1.6-10.5-3-15.9-3.8-2.8-.4-5.6-.6-8.5-.7-2.4-.1-4.4.1-6.8.4-1.7.2-3.4.6-5 1-.5.1-.6.9 0 1 5.6.6 11.2.3 16.8.9 6.2.7 12.3 2 18.3 3.9 11.3 3.6 22 9.5 31.7 16.2.3.2.6-.2.4-.4-2.1-2.1-4.5-4.2-7-6.1z"></path><path class="st3" d="M258.4 128.9c-2-15.6-11.7-29.5-26.5-35.1-13.7-5.2-29.7-1.6-40.7 7.8-7.3 6.3-12.2 15.2-14.1 24.6-2.2 10.7-.6 22.5 5.5 31.6.1.1.2.3.3.4.1.1.3.1.4.1 1 0 1.9-.1 2.9-.1-4.1-4.7-6-10.4-6.5-16.4-.4-4.8-.1-9.7.9-14.4.1-.6.3-1.2.4-1.8 2.1-7.9 6.5-15.5 13.4-20.1 7.2-4.8 16-7.3 24.7-6.8 6.3.4 12.5 2.3 17.9 5.5 5.8 3.4 9.8 7.8 13 13.7 4.4 8.2 6.7 18.5 5 27.7-.9 4.9-2.7 9.8-5.3 13.9-2.2 3.5-5.2 6.5-8.6 8.8-2.3 1.6-4.8 3-7.3 4.1-1.3.6-2.6 1.1-3.9 1.5-.4.1-.8.3-1.2.4.6.6 1.1 1.1 1.8 1.6l.1.1c.2.1.3.3.4.5 1.3-.5 2.6-1 3.9-1.6 4.2-1.7 8.3-4 11.5-7.3 3.1-3.2 5.7-7 7.6-11 4.1-8.5 5.7-18.3 4.4-27.7z"></path><ellipse class="st0" cx="219.5" cy="138.4" rx="24.5" ry="24.8" transform="rotate(-7.129 219.554 138.452)"></ellipse><ellipse class="st3" cx="219.5" cy="138.4" rx="17.7" ry="18" transform="rotate(-7.129 219.554 138.452)"></ellipse><path class="st1" d="M236.8 134c.5-.2.9-.5 1.3-.9 1.9-1.6 3.1-4.2 2.5-6.6-2.1-8.6-17.7 1.3-12.5 7.5.7.9 1.9 1.1 3.1 1.1 1.9.2 3.9-.2 5.6-1.1z"></path><path class="st11" d="M202.9 146c.4-.1.7-.4 1-.7.9-1 .8-2.8-.2-3.7-2.6-2.4-6.8 1.6-3.5 4 .8.6 1.9.7 2.7.4z"></path><path class="st12" d="M240 147.8c1-2.3 4.6-10-.1-10.9-1.5-.3-3 .5-4.4 1.2-10.1 5.1-21.9 6.6-33 4.3-5.2-1.1-4.8 1.8-3.1 5.3 1.8 3.6 3.6 7.1 6.9 9.6 11.2 8.3 28.2 2.9 33.7-9.5z"></path><path class="st1" d="M349.5 123.1c-.8-10.5-6.9-21.3-15.1-27-6.9-4.7-15.2-7.1-23.6-6.6-7.4.4-14.8 3.2-20.8 7.7-6.7 5.1-10.5 12.9-12.6 18.6-2.2 6-2.9 12.2-2.2 17.8.7 5.5 2.4 10.9 5 16.2 4.3 8.6 11.6 15 20.6 18 4.1 1.4 8.6 2.1 13.2 2.1h.4c4.3 0 8.3-1.3 11.7-2.5h.1c.3-.1.6-.2.9-.4.4-.2.6-.6.9-.9 3.9-4.9 8.8-8.9 14.4-11.9.1-.1.3-.1.4-.2.2-.1.4-.2.5-.4.2-.2.4-.5.5-.7l.3-.5c1.1-1.9 2.2-3.8 3-5.8.9-2.3 1.6-4.8 2-7.3 1-5.7.8-11.4.4-16.2z"></path><path class="st2" d="M349.5 123.1c-.8-10.5-6.9-21.3-15.1-27-6.9-4.7-15.2-7.1-23.6-6.6-7.4.4-14.8 3.2-20.8 7.7-6.7 5.1-10.5 12.9-12.6 18.6-2.1 5.9-2.6 12.2-1.8 18.4.1-6.6 1.7-13.1 4.3-19.2 1.3-3 2.8-5.9 4.8-8.5 6.3-8.3 17-12.8 27.4-12.1 10.4.6 20.2 6.2 26.7 14.3 6.5 8.1 9.8 18.6 9.8 29 1.3-4.9 1.3-9.4.9-14.6z"></path><path class="st3" d="M351.2 149.2c-1.5.6-3 1.3-4.5 2.1 2.6-3.2 3.9-8.1 4.5-11.6 1.2-6.4 1.3-13.3.2-19.7-2.2-13-8.8-25.2-20.3-31.9-11-6.5-25-6.2-36.2-.2-6.1 3.2-11.5 8.2-15.4 13.9-10.2 15-9.3 34.6-.8 50.1.1.2.2.5.4.7 9 15.9 28.1 23 45.5 17.4-1.6 2.5-2.8 5.1-3.2 7.9-.1.4.5.7.7.3 3.6-5.7 6.4-10.8 11.5-15.3 5.5-4.8 11.8-8.7 17.8-12.8.4-.6.1-1.1-.2-.9zm-8.9 4.1c-.1.1-.2.1-.4.2-5.7 3.1-10.6 7.1-14.6 12.1-.2.2-.4.5-.7.7-.2.2-.5.3-.8.4-3.7 1.3-7.5 2.4-11.4 2.5-4.5 0-9-.6-13.3-2.1-8.8-3-16-9.3-20.1-17.6-2.5-5-4.2-10.4-4.9-15.9-.7-5.9.2-11.9 2.2-17.4 2.5-6.8 6.4-13.8 12.3-18.2 5.8-4.4 13-7.1 20.3-7.5 8.1-.5 16.3 1.8 23 6.4 8.2 5.6 14 16.4 14.8 26.3.4 5.3.5 10.6-.4 15.9-.4 2.4-1.1 4.9-2 7.2-.9 2.2-2.1 4.2-3.3 6.2-.1.2-.2.4-.4.6-.1 0-.2.1-.3.2z"></path><ellipse class="st0" cx="305.8" cy="134.9" rx="24.5" ry="24.8" transform="rotate(-7.129 305.888 134.962)"></ellipse><ellipse class="st3" cx="305.8" cy="134.9" rx="17.7" ry="18" transform="rotate(-7.129 305.888 134.962)"></ellipse><path class="st1" d="M323.1 130.5c.5-.2.9-.5 1.3-.9 1.9-1.6 3.1-4.2 2.5-6.6-2.1-8.6-17.7 1.3-12.5 7.5.7.9 1.9 1.1 3.1 1.1 1.9.2 3.9-.2 5.6-1.1z"></path><path class="st11" d="M289.3 142.5c.4-.1.7-.4 1-.7.9-1 .8-2.8-.2-3.7-2.6-2.4-6.8 1.6-3.5 4 .7.7 1.8.7 2.7.4z"></path><path class="st12" d="M326.3 144.3c1-2.3 4.6-10-.1-10.9-1.5-.3-3 .5-4.4 1.2-10.1 5.1-21.9 6.6-33 4.3-5.2-1.1-4.8 1.8-3.1 5.3 1.8 3.6 3.6 7.1 6.9 9.6 11.3 8.3 28.2 2.9 33.7-9.5z"></path></g></svg>